<svg width="24" height="24" viewBox="0 0 24 24" fill="none" xmlns="http://www.w3.org/2000/svg">
<!-- Person silhouette top (head area - flipped) -->
<path d="M17.5 8.75C17.5 7.9596 16.7614 7.42 16 7.42C15.2386 7.42 14.5 7.9596 14.5 8.75V10.75H17.5V8.75Z" stroke="#314158" stroke-width="1.5" stroke-linecap="round" stroke-linejoin="round"/>
<!-- Horizontal line at middle -->
<path d="M5.75 12.75H19.75" stroke="#314158" stroke-width="1.5" stroke-linecap="round"/>
<!-- Horizontal line at 37.5% -->
<path d="M8.25 9.75H17.25" stroke="#314158" stroke-width="1.5" stroke-linecap="round"/>
<!-- Feet/legs left -->
<path d="M8.5 16C8.5 16.5523 8.05228 17 7.5 17C6.94772 17 6.5 16.5523 6.5 16C6.5 15.4477 6.94772 15 7.5 15C8.05228 15 8.5 15.4477 8.5 16Z" fill="#314158"/>
<!-- Feet/legs right -->
<path d="M15.5 16C15.5 16.5523 15.0523 17 14.5 17C13.9477 17 13.5 16.5523 13.5 16C13.5 15.4477 13.9477 15 14.5 15C15.0523 15 15.5 15.4477 15.5 16Z" fill="#314158"/>
<!-- Small dot -->
<circle cx="10" cy="19.5" r="0.75" fill="#314158"/>
<!-- Bottom line -->
<path d="M10 17V19.5H14" stroke="#314158" stroke-width="1.5" stroke-linecap="round"/>
</svg>
