<svg width="24" height="24" viewBox="0 0 24 24" fill="none" xmlns="http://www.w3.org/2000/svg">
<path d="M19 12H17.264C16.9581 11.9994 16.6604 12.0989 16.4164 12.2835C16.1724 12.468 15.9956 12.7274 15.913 13.022L14.268 18.874C14.2574 18.9103 14.2353 18.9423 14.205 18.965C14.1747 18.9877 14.1379 19 14.1 19C14.0621 19 14.0253 18.9877 13.995 18.965C13.9647 18.9423 13.9426 18.9103 13.932 18.874L10.068 5.126C10.0574 5.08965 10.0353 5.05772 10.005 5.035C9.97471 5.01228 9.93786 5 9.9 5C9.86214 5 9.82529 5.01228 9.795 5.035C9.76471 5.05772 9.7426 5.08965 9.732 5.126L8.087 10.978C8.00473 11.2714 7.82897 11.53 7.5864 11.7144C7.34384 11.8989 7.04772 11.9991 6.743 12H5" stroke="#314158" stroke-width="1.5" stroke-linecap="round" stroke-linejoin="round"/>
</svg>
