<svg fill="none" viewBox="0 0 24 24"><path stroke="currentColor" stroke-linecap="round" stroke-width="1.5" d="m16.565 4.75.162.004a3.1 3.1 0 0 1 2.113 1.018c.589.644.91 1.503.91 2.386v6.026c0 .883-.321 1.742-.91 2.385a3.09 3.09 0 0 1-2.275 1.023h-1.944a.05.05 0 0 0-.037.016l-2.05 2.238a.95.95 0 0 1-1.4 0l-2.05-2.238a.05.05 0 0 0-.037-.016H7.435A3.09 3.09 0 0 1 5.16 16.57a3.54 3.54 0 0 1-.91-2.386V8.158c0-.883.321-1.742.91-2.386A3.09 3.09 0 0 1 7.435 4.75z"/><path fill="currentColor" d="M11.834 7.911a.175.175 0 0 1 .327 0l.94 2.384a.18.18 0 0 0 .098.099l2.385.94a.175.175 0 0 1 0 .327l-2.384.94a.18.18 0 0 0-.1.098l-.94 2.385a.175.175 0 0 1-.326 0l-.94-2.384a.18.18 0 0 0-.099-.1l-2.384-.94a.175.175 0 0 1 0-.326l2.384-.94a.18.18 0 0 0 .099-.099z"/></svg>