<svg width="24" height="24" viewBox="0 0 24 24" fill="none" xmlns="http://www.w3.org/2000/svg">
<path d="M8.866 15.598C8.026 15.677 7.186 15.414 6.565 14.793C5.428 13.647 5.489 11.722 6.697 10.506L9.986 7.2C11.193 5.984 13.109 5.931 14.246 7.068C15.384 8.215 15.322 10.139 14.115 11.355L13.466 12.067" stroke="#314158" stroke-width="1.5" stroke-miterlimit="10" stroke-linecap="round"/>
<path d="M15.446 8.264C16.285 8.185 17.125 8.447 17.746 9.068C18.884 10.214 18.822 12.139 17.615 13.355L14.326 16.662C13.118 17.878 11.203 17.93 10.065 16.793C8.928 15.647 8.989 13.722 10.197 12.506L10.948 11.751" stroke="#314158" stroke-width="1.5" stroke-miterlimit="10" stroke-linecap="round"/>
</svg>
