<svg fill="none" viewBox="0 0 24 24"><path stroke="currentColor" stroke-linecap="round" stroke-miterlimit="10" stroke-width="1.5" d="M8.866 15.598c-.84.079-1.68-.184-2.301-.805-1.137-1.146-1.076-3.071.132-4.287L9.986 7.2c1.207-1.216 3.123-1.269 4.26-.132 1.138 1.147 1.076 3.071-.131 4.287l-.649.712"/><path stroke="currentColor" stroke-linecap="round" stroke-miterlimit="10" stroke-width="1.5" d="M15.446 8.264c.839-.079 1.679.183 2.3.804 1.138 1.146 1.076 3.071-.131 4.287l-3.289 3.307c-1.208 1.216-3.123 1.268-4.261.131-1.137-1.146-1.076-3.071.132-4.287l.751-.755"/></svg>