<svg width="24" height="24" viewBox="0 0 24 24" fill="none" xmlns="http://www.w3.org/2000/svg">
<path d="M6.814 12H14.689C15.6173 12 16.5075 12.3688 17.1639 13.0251C17.8203 13.6815 18.189 14.5717 18.189 15.5C18.189 16.4283 17.8203 17.3185 17.1639 17.9749C16.5075 18.6313 15.6173 19 14.689 19H7.689C7.45694 19 7.23438 18.9078 7.07028 18.7437C6.90619 18.5796 6.814 18.3571 6.814 18.125V5.875C6.814 5.64294 6.90619 5.42038 7.07028 5.25628C7.23438 5.09219 7.45694 5 7.689 5H13.814C14.7423 5 15.6325 5.36875 16.2889 6.02513C16.9453 6.6815 17.314 7.57174 17.314 8.5C17.314 9.42826 16.9453 10.3185 16.2889 10.9749C15.6325 11.6313 14.7423 12 13.814 12" stroke="#314158" stroke-width="1.5" stroke-linecap="round" stroke-linejoin="round"/>
</svg>
