<svg width="24" height="24" viewBox="0 0 24 24" fill="none" xmlns="http://www.w3.org/2000/svg">
<path d="M12.0005 16.1987V7.0997M12.0005 16.1987C12.0009 16.5814 12.0797 16.9599 12.2321 17.3109C12.3845 17.6619 12.6073 17.9779 12.8867 18.2395C13.1660 18.5010 13.4960 18.7025 13.8563 18.8315C14.2166 18.9605 14.5995 19.0143 14.9814 18.9895C15.3633 18.9647 15.7360 18.8619 16.0766 18.6874C16.4172 18.5130 16.7184 18.2705 16.9616 17.9751C17.2048 17.6796 17.3849 17.3374 17.4907 16.9697C17.5965 16.6019 17.6257 16.2163 17.5767 15.8368M12.0005 16.1987C12.0001 16.5814 11.9211 16.9599 11.7687 17.3109C11.6163 17.6619 11.3935 17.9779 11.1141 18.2395C10.8348 18.5010 10.5048 18.7025 10.1445 18.8315C9.7842 18.9605 9.4013 19.0143 9.0194 18.9895C8.6375 18.9647 8.2648 18.8619 7.9242 18.6874C7.5836 18.5130 7.2824 18.2705 7.0392 17.9751C6.7960 17.6796 6.6159 17.3374 6.5101 16.9697C6.4043 16.6019 6.3751 16.2163 6.4241 15.8368M12.0005 7.0997C12.0005 6.7776 12.0747 6.4598 12.2171 6.1709C12.3595 5.8821 12.5665 5.6298 12.8221 5.4337C13.0776 5.2377 13.3748 5.103 13.6907 5.0402C14.0066 4.9773 14.3327 4.9880 14.6438 5.0713C14.9549 5.1547 15.2427 5.3085 15.4849 5.5209C15.7270 5.7333 15.9171 5.9985 16.0403 6.2961C16.1636 6.5937 16.2167 6.9156 16.1956 7.2370C16.1745 7.5584 16.0798 7.8706 15.9188 8.1496M12.0005 7.0997C12.0005 6.7776 11.9265 6.4598 11.7841 6.1709C11.6416 5.8821 11.4346 5.6298 11.1791 5.4337C10.9236 5.2377 10.6264 5.103 10.3105 5.0402C9.9946 4.9773 9.6684 4.9880 9.3573 5.0713C9.0462 5.1547 8.7585 5.3085 8.5163 5.5209C8.2742 5.7333 8.0841 5.9985 7.9608 6.2961C7.8376 6.5937 7.7845 6.9156 7.8055 7.2370C7.8266 7.5584 7.9214 7.8706 8.0824 8.1496M14.1002 12.6991C13.4946 12.5221 12.9627 12.1536 12.5842 11.6488C12.2056 11.1441 12.0008 10.5303 12.0004 9.8994C12.0001 10.5303 11.7952 11.1441 11.4167 11.6488C11.0382 12.1536 10.5062 12.5221 9.9007 12.6991M16.1980 7.1872C16.6094 7.2930 16.9914 7.4910 17.3149 7.7662C17.6385 8.0415 17.8952 8.3868 18.0655 8.7759C18.2359 9.1650 18.3155 9.5878 18.2982 10.0123C18.2810 10.4367 18.1674 10.8517 17.9660 11.2257M16.1999 16.1987C16.8162 16.1986 17.4153 15.9953 17.9042 15.6201C18.3931 15.2449 18.7446 14.7189 18.9041 14.1236C19.0636 13.5283 19.0222 12.8970 18.7864 12.3277C18.5506 11.7583 18.1335 11.2826 17.5998 10.9745M7.8010 16.1987C7.1847 16.1986 6.5856 15.9953 6.0967 15.6201C5.6078 15.2449 5.2563 14.7189 5.0968 14.1236C4.9373 13.5283 4.9787 12.8970 5.2145 12.3277C5.4503 11.7583 5.8674 11.2826 6.4011 10.9745M7.8031 7.1872C7.3917 7.2930 7.0097 7.4910 6.6861 7.7662C6.3626 8.0415 6.1059 8.3868 5.9356 8.7759C5.7652 9.1650 5.6856 9.5878 5.7029 10.0123C5.7201 10.4367 5.8337 10.8517 6.0351 11.2257" stroke="#314158" stroke-width="1.5" stroke-linecap="round" stroke-linejoin="round"/>
</svg>
