<svg fill="none" viewBox="0 0 24 24"><path stroke="currentColor" stroke-linecap="round" stroke-width="1.5" d="M11.4 4.75c.65 0 1.256.288 1.689.769.43.478.66 1.112.661 1.758v12.446c0 .646-.23 1.28-.661 1.758a2.27 2.27 0 0 1-1.689.769H6.6c-.65 0-1.256-.288-1.689-.769a2.63 2.63 0 0 1-.661-1.758V7.277c0-.646.23-1.28.661-1.758A2.27 2.27 0 0 1 6.6 4.75z"/><path stroke="currentColor" stroke-linecap="round" stroke-width=".8" d="M10.3 4.4a.4.4 0 1 1 0 .8h-2a.4.4 0 0 1 0-.8z"/><circle cx="9" cy="20" r="1" fill="currentColor"/><path stroke="currentColor" stroke-linecap="round" stroke-linejoin="round" stroke-width="1.5" d="M15.743 11.018a7 7 0 0 1 9.862-.863"/><path stroke="currentColor" stroke-linecap="round" stroke-linejoin="round" stroke-width="1.5" d="M16.535 12.216a3.97 3.97 0 0 1 5.59-.49"/></svg>