<svg width="24" height="24" viewBox="0 0 24 24" fill="none" xmlns="http://www.w3.org/2000/svg">
<path d="M18.79 14.25C17.784 16.882 15.235 18.75 12.25 18.75C8.384 18.75 5.25 15.616 5.25 11.75C5.25 8.804 7.07 6.283 9.647 5.25" stroke="#314158" stroke-width="1.5" stroke-linecap="round"/>
<path d="M17.25 11.25C17.25 10.462 17.095 9.682 16.793 8.954C16.492 8.226 16.05 7.565 15.493 7.007C14.935 6.45 14.274 6.008 13.546 5.707C12.818 5.405 12.038 5.25 11.25 5.25L11.25 8.291C11.639 8.291 12.023 8.367 12.382 8.516C12.741 8.665 13.068 8.883 13.342 9.158C13.617 9.432 13.835 9.759 13.984 10.118C14.133 10.477 14.209 10.861 14.209 11.25H17.25Z" stroke="#314158" stroke-width="1.5" stroke-linejoin="round"/>
</svg>
