<svg fill="none" viewBox="0 0 24 24"><path stroke="currentColor" stroke-linecap="round" stroke-width="1.5" d="M19.847 13.624V14c0 .702-.28 1.375-.78 1.872-.5.496-1.179.775-1.886.775h-2.186a.8.8 0 0 0-.563.232l-2.292 2.276a.2.2 0 0 1-.282 0l-2.292-2.276a.8.8 0 0 0-.563-.232H7.18a2.68 2.68 0 0 1-1.886-.775 2.64 2.64 0 0 1-.781-1.872V8c0-.702.28-1.375.781-1.872a2.68 2.68 0 0 1 1.886-.775h6.037"/><path stroke="currentColor" stroke-width="1.5" d="M17.337 4.914a.175.175 0 0 1 .326 0l.94 2.384a.18.18 0 0 0 .1.099l2.384.94a.175.175 0 0 1 0 .326l-2.384.94a.18.18 0 0 0-.1.1l-.94 2.383a.175.175 0 0 1-.326 0l-.94-2.383a.18.18 0 0 0-.099-.1l-2.384-.94a.175.175 0 0 1 0-.326l2.384-.94a.18.18 0 0 0 .099-.099z"/></svg>