<svg width="24" height="24" viewBox="0 0 24 24" fill="none" xmlns="http://www.w3.org/2000/svg">
<path d="M12 5C13.3581 4.99975 14.6869 5.39458 15.8246 6.13635C16.9622 6.87812 17.8595 7.93481 18.407 9.17762C18.9546 10.4204 19.1289 11.7957 18.9085 13.1358C18.6881 14.4759 18.0827 15.723 17.166 16.725M12 7.8V12L14.8 13.4M5.35 9.8125C5.12695 10.4906 5.00892 11.1987 5 11.9125M5.581 14.8C5.97405 15.7043 6.55371 16.5153 7.282 17.18M6.8452 7.2645C7.04053 7.05186 7.24882 6.85151 7.4689 6.6646M9.65079 18.594C11.3964 19.2158 13.3173 19.1202 14.9925 18.328" stroke="#314158" stroke-width="1.5" stroke-linecap="round" stroke-linejoin="round"/>
</svg>
