<svg width="24" height="24" viewBox="0 0 24 24" fill="none" xmlns="http://www.w3.org/2000/svg">
<path d="M14.4762 11.5049C14.345 11.6362 14.2712 11.8143 14.2712 12C14.2712 12.1857 14.345 12.3638 14.4762 12.4951L16.1401 14.1597C16.2715 14.291 16.4496 14.3648 16.6353 14.3648C16.8209 14.3648 16.999 14.291 17.1304 14.1597L18.795 12.4951C18.9262 12.3638 19 12.1857 19 12C19 11.8143 18.9262 11.6362 18.795 11.5049L17.1304 9.84029C16.999 9.70901 16.8209 9.63525 16.6353 9.63525C16.4496 9.63525 16.2715 9.70901 16.1401 9.84029L14.4762 11.5049Z" stroke="#314158" stroke-width="1.2" stroke-linecap="round" stroke-linejoin="round"/>
<path d="M5.20504 11.5049C5.07375 11.6362 5 11.8143 5 12C5 12.1857 5.07375 12.3638 5.20504 12.4951L6.86964 14.1597C7.00096 14.291 7.17905 14.3648 7.36475 14.3648C7.55044 14.3648 7.72853 14.291 7.85986 14.1597L9.52446 12.4951C9.65574 12.3638 9.72949 12.1857 9.72949 12C9.72949 11.8143 9.65574 11.6362 9.52446 11.5049L7.85986 9.84029C7.72853 9.70901 7.55044 9.63525 7.36475 9.63525C7.17905 9.63525 7.00096 9.70901 6.86964 9.84029L5.20504 11.5049Z" stroke="#314158" stroke-width="1.2" stroke-linecap="round" stroke-linejoin="round"/>
<path d="M9.84029 16.1401C9.77518 16.2052 9.72353 16.2824 9.68828 16.3674C9.65304 16.4524 9.6349 16.5436 9.6349 16.6356C9.6349 16.7276 9.65304 16.8188 9.68828 16.9038C9.72353 16.9888 9.77518 17.066 9.84029 17.1311L11.5049 18.795C11.6362 18.9262 11.8143 19 12 19C12.1857 19 12.3638 18.9262 12.4951 18.795L14.1597 17.1311C14.2248 17.066 14.2765 16.9888 14.3117 16.9038C14.347 16.8188 14.3651 16.7276 14.3651 16.6356C14.3651 16.5436 14.347 16.4524 14.3117 16.3674C14.2765 16.2824 14.2248 16.2052 14.1597 16.1401L12.4951 14.4762C12.3638 14.345 12.1857 14.2712 12 14.2712C11.8143 14.2712 11.6362 14.345 11.5049 14.4762L9.84029 16.1401Z" stroke="#314158" stroke-width="1.2" stroke-linecap="round" stroke-linejoin="round"/>
<path d="M9.84029 6.86964C9.70901 7.00096 9.63525 7.17905 9.63525 7.36475C9.63525 7.55044 9.70901 7.72853 9.84029 7.85986L11.5049 9.52376C11.6362 9.65504 11.8143 9.72879 12 9.72879C12.1857 9.72879 12.3638 9.65504 12.4951 9.52376L14.1597 7.85986C14.291 7.72853 14.3648 7.55044 14.3648 7.36475C14.3648 7.17905 14.291 7.00096 14.1597 6.86964L12.4951 5.20504C12.3638 5.07375 12.1857 5 12 5C11.8143 5 11.6362 5.07375 11.5049 5.20504L9.84029 6.86964Z" stroke="#314158" stroke-width="1.2" stroke-linecap="round" stroke-linejoin="round"/>
</svg>
