<svg fill="none" viewBox="0 0 24 24"><path stroke="currentColor" stroke-linecap="round" stroke-linejoin="round" stroke-width="1.2" d="M14.476 11.505a.7.7 0 0 0 0 .99l1.664 1.665a.7.7 0 0 0 .99 0l1.665-1.665a.7.7 0 0 0 0-.99L17.13 9.84a.7.7 0 0 0-.99 0zM5.205 11.505a.7.7 0 0 0 0 .99L6.87 14.16a.7.7 0 0 0 .99 0l1.664-1.665a.7.7 0 0 0 0-.99L7.86 9.84a.7.7 0 0 0-.99 0zM9.84 16.14a.7.7 0 0 0 0 .991l1.665 1.664a.7.7 0 0 0 .99 0l1.665-1.664a.7.7 0 0 0 0-.99l-1.665-1.665a.7.7 0 0 0-.99 0zM9.84 6.87a.7.7 0 0 0 0 .99l1.665 1.664a.7.7 0 0 0 .99 0L14.16 7.86a.7.7 0 0 0 0-.99l-1.665-1.665a.7.7 0 0 0-.99 0z"/></svg>