<svg fill="none" viewBox="0 0 24 24"><path stroke="currentColor" stroke-linecap="round" stroke-linejoin="round" stroke-width="1.5" d="M19.052 8.966c0-.423-.282-.846-.564-1.058l-4.444-2.75a1.21 1.21 0 0 0-1.199 0L5.581 9.388c-.353.141-.635.564-.635.988v4.654c0 .353.282.847.564 1.059l4.444 2.75a1.21 1.21 0 0 0 1.199 0l7.264-4.232c.353-.211.635-.705.635-1.058z"/><path stroke="currentColor" stroke-linecap="round" stroke-linejoin="round" stroke-width="1.5" d="M10.59 18.983v-5.572L5.02 9.955M10.589 13.41l8.393-4.866M13.411 17.502v-5.713M16.231 15.88v-5.714"/></svg>