<svg fill="none" viewBox="0 0 24 24"><path stroke="currentColor" stroke-linecap="round" stroke-linejoin="round" stroke-width="1.5" d="M18.146 11.505V8.583c0-.991 0-1.487-.193-1.866a1.77 1.77 0 0 0-.774-.774c-.379-.193-.875-.193-1.867-.193H8.583c-.991 0-1.487 0-1.866.193a1.77 1.77 0 0 0-.774.774c-.193.379-.193.875-.193 1.866v8.5c0 .992 0 1.488.193 1.867.17.333.44.604.774.774.379.193.875.193 1.866.193h2.48M14.578 16.312H12.5M15.71 13.35H9.5M14.459 10.35H9.5"/><circle cx="8.831" cy="8.635" r=".885" fill="currentColor"/><path stroke="currentColor" stroke-linecap="round" stroke-width="1.5" d="M17.541 15.05v5.74M20.411 17.92h-5.74"/></svg>