<svg fill="none" viewBox="0 0 24 24"><path stroke="currentColor" stroke-linecap="round" stroke-width="1.5" d="M18.01 11.605a7.105 7.105 0 0 0-14.21 0M18.75 17.523c-2.188 0-4.142-.21-5.425.626-.985.64-1.575 1.459-1.575 2.351v.5"/><path stroke="currentColor" stroke-linecap="round" stroke-width="1.5" d="M7.763 14.342c0 1.046 0 2.842-2.131 2.842-2.132 0-2.132-1.796-2.132-2.842s0-2.842 2.132-2.842c2.131 0 2.131 1.796 2.131 2.842ZM18.513 14.342c0 1.046 0 2.842-2.132 2.842-2.131 0-2.131-1.796-2.131-2.842s0-2.842 2.131-2.842c2.132 0 2.132 1.796 2.132 2.842Z"/><path fill="currentColor" stroke="currentColor" stroke-linecap="round" stroke-width="1.5" d="M11.75 21.5c0 .736 0 2-1 2s-1-1.264-1-2 0-2 1-2 1 1.264 1 2Z"/></svg>