<svg width="24" height="24" viewBox="0 0 24 24" fill="none" xmlns="http://www.w3.org/2000/svg">
<g transform="translate(11.75,12) rotate(90) translate(-6.25,-6)">
<path d="M0.75 6.75L0.75 3.5C0.75 1.98122 1.98122 0.75 3.5 0.75C5.01878 0.75 6.25 1.98122 6.25 3.5V8.5C6.25 10.0188 7.48122 11.25 9 11.25C10.5188 11.25 11.75 10.0188 11.75 8.5V5.75" stroke="#314158" stroke-width="1.5" stroke-linecap="round" stroke-linejoin="round"/>
</g>
<path d="M 10.7500 18.2500 L 12.2500 16.7500 L 13.7500 18.2500" stroke="#314158" stroke-width="1.5" stroke-linecap="round" stroke-linejoin="round"/>
<path d="M 17.5770 18.9498 C 17.5308 18.9809 17.4707 18.9809 17.4246 18.9499 C 16.7687 18.5086 16.0008 17.7015 16.0008 16.6463 C 16.0008 15.6856 16.7249 14.9999 17.5008 14.9999 C 18.2767 14.9999 18.9999 15.6856 19.0008 16.6463 C 19.0018 17.7015 18.2319 18.5086 17.5770 18.9498 Z" stroke="#314158" stroke-width="1.5" stroke-linecap="round" stroke-linejoin="round" fill-rule="evenodd" clip-rule="evenodd"/>
<path d="M 6.5754 8.9490 C 6.5292 8.9801 6.4691 8.9801 6.4230 8.9491 C 5.7671 8.5078 4.9992 7.7007 4.9992 6.6455 C 4.9992 5.6848 5.7233 4.9991 6.4992 4.9991 C 7.2751 4.9991 7.9983 5.6848 7.9992 6.6455 C 8.0002 7.7007 7.2303 8.5078 6.5754 8.9490 Z" stroke="#314158" stroke-width="1.5" stroke-linecap="round" stroke-linejoin="round" fill-rule="evenodd" clip-rule="evenodd"/>
</svg>
