<svg fill="none" viewBox="0 0 24 24"><path stroke="currentColor" stroke-linecap="round" stroke-linejoin="round" stroke-width="1.5" d="M11 6.5h3.25a2.75 2.75 0 0 1 0 5.5h-5a2.75 2.75 0 1 0 0 5.5H12"/><path stroke="currentColor" stroke-linecap="round" stroke-linejoin="round" stroke-width="1.5" d="m10.75 18.25 1.5-1.5 1.5 1.5"/><path stroke="currentColor" stroke-linecap="round" stroke-linejoin="round" stroke-width="1.5" d="M17.577 18.95a.14.14 0 0 1-.152 0C16.769 18.509 16 17.702 16 16.646c0-.96.724-1.646 1.5-1.646s1.499.686 1.5 1.646c0 1.055-.77 1.863-1.424 2.304M6.575 8.949a.14.14 0 0 1-.152 0c-.656-.441-1.424-1.248-1.424-2.303 0-.961.724-1.647 1.5-1.647S8 5.685 8 6.646C8 7.7 7.23 8.508 6.575 8.949" clip-rule="evenodd"/></svg>