<svg fill="none" viewBox="0 0 24 24"><path stroke="currentColor" stroke-linecap="round" stroke-linejoin="round" stroke-width="1.5" d="M12 12.416V19.9m0-7.484 6.891-3.828M12 12.416 5.206 8.641m13.685-.053a.7.7 0 0 0-.097-.13c-.084-.093-.201-.157-.434-.287l-5.755-3.197c-.221-.123-.331-.184-.448-.208a.8.8 0 0 0-.314 0c-.116.024-.227.085-.447.208L5.64 8.171c-.233.13-.349.194-.434.287a.76.76 0 0 0-.166.283C5 8.859 5 8.993 5 9.259v6.314c0 .266 0 .399.04.518a.8.8 0 0 0 .166.283c.085.092.201.157.434.286l5.756 3.198c.22.122.331.184.447.208a.8.8 0 0 0 .314 0c.117-.024.227-.086.448-.208l5.755-3.198c.233-.129.35-.194.434-.286a.8.8 0 0 0 .167-.283c.039-.119.039-.252.039-.518V9.259c0-.266 0-.4-.039-.518a.8.8 0 0 0-.07-.153"/></svg>