<svg width="24" height="24" viewBox="0 0 24 24" fill="none" xmlns="http://www.w3.org/2000/svg">
<path d="M 12.0024 12.7500 C 12.4166 12.7500 12.7524 12.4142 12.7524 12.0000 C 12.7524 11.5858 12.4166 11.2500 12.0024 11.2500 C 11.5882 11.2500 11.2524 11.5858 11.2524 12.0000 C 11.2524 12.4142 11.5882 12.7500 12.0024 12.7500 Z" stroke="#314158" stroke-width="1.5" stroke-linecap="round" stroke-linejoin="round"/>
<path d="M 12.0024 7.5000 C 12.4166 7.5000 12.7524 7.1642 12.7524 6.7500 C 12.7524 6.3358 12.4166 6.0000 12.0024 6.0000 C 11.5882 6.0000 11.2524 6.3358 11.2524 6.7500 C 11.2524 7.1642 11.5882 7.5000 12.0024 7.5000 Z" stroke="#314158" stroke-width="1.5" stroke-linecap="round" stroke-linejoin="round"/>
<path d="M 12.0024 18.0000 C 12.4166 18.0000 12.7524 17.6642 12.7524 17.2500 C 12.7524 16.8358 12.4166 16.5000 12.0024 16.5000 C 11.5882 16.5000 11.2524 16.8358 11.2524 17.2500 C 11.2524 17.6642 11.5882 18.0000 12.0024 18.0000 Z" stroke="#314158" stroke-width="1.5" stroke-linecap="round" stroke-linejoin="round"/>
</svg>
