<svg fill="none" viewBox="0 0 17.5 17.5"><path fill="currentColor" d="M8.75 0a1.98 1.98 0 0 1 1.77 1.094h.002l6.77 13.54.052.114A1.982 1.982 0 0 1 15.52 17.5H1.98a1.98 1.98 0 0 1-1.771-2.866l6.77-13.54A1.98 1.98 0 0 1 8.75 0m0 1.5a.48.48 0 0 0-.43.266L1.55 15.305a.48.48 0 0 0 .196.635q.11.06.235.06H15.52l.06-.004a.482.482 0 0 0 .37-.691L9.18 1.765l-.033-.057A.48.48 0 0 0 8.75 1.5m0 10.25a1 1 0 1 1 0 2 1 1 0 0 1 0-2m0-5.75a.75.75 0 0 1 .75.75v3.231a.75.75 0 0 1-1.5 0V6.75A.75.75 0 0 1 8.75 6"/></svg>