<svg width="24" height="24" viewBox="0 0 24 24" fill="none" xmlns="http://www.w3.org/2000/svg">
<path d="M13.1944 4.76234C13.0468 4.75414 12.8986 4.75 12.75 4.75C10.6283 4.75 8.59344 5.59286 7.09315 7.09315C5.59286 8.59344 4.75 10.6283 4.75 12.75C4.75 14.8717 5.59286 16.9066 7.09315 18.4069C8.59344 19.9071 10.6283 20.75 12.75 20.75C14.8717 20.75 16.9066 19.9071 18.4069 18.4069C19.9071 16.9066 20.75 14.8717 20.75 12.75C20.75 11.7626 20.5675 10.794 20.2211 9.88934" stroke="#314158" stroke-width="1.5" stroke-linecap="round" stroke-linejoin="round"/>
<circle cx="18.6" cy="6.4" r="2.5" fill="#F22A42"/>
<path d="M12.75 14.8V10.8" stroke="#314158" stroke-width="1.5" stroke-linecap="round" stroke-linejoin="round"/>
<circle cx="12.75" cy="17" r="0.6" stroke="#314158" stroke-width="1.2" stroke-linecap="round" stroke-linejoin="round"/>
</svg>
