<svg width="24" height="24" viewBox="0 0 24 24" fill="none" xmlns="http://www.w3.org/2000/svg">
<!-- Right panel -->
<path d="M12 7.75H18C18.5523 7.75 19 8.19772 19 8.75V16.75C19 17.3023 18.5523 17.75 18 17.75H12" stroke="#314158" stroke-width="1.5"/>
<!-- Grid lines -->
<path d="M16.873 10.25L15.25 10.25" stroke="#314158" stroke-width="1.5" stroke-linecap="round" stroke-linejoin="round"/>
<path d="M16.873 12.75L15.25 12.75" stroke="#314158" stroke-width="1.5" stroke-linecap="round" stroke-linejoin="round"/>
<path d="M16.873 15.25L15.25 15.25" stroke="#314158" stroke-width="1.5" stroke-linecap="round" stroke-linejoin="round"/>
<!-- Left book panel -->
<path d="M19.8048 20.8357V8.25105C19.8048 7.9058 19.4633 7.66445 19.1378 7.77976L13.083 9.9254C12.8834 9.99613 12.75 10.1849 12.75 10.3967V18.6901C12.75 18.9019 12.8834 19.0907 13.083 19.1614L19.1378 21.307C19.4633 21.4223 19.8048 21.181 19.8048 20.8357Z" stroke="#314158" stroke-width="1.5"/>
<!-- X line 1 -->
<path d="M18.267 9.75L15.75 16.202" stroke="#314158" stroke-width="1.5" stroke-linecap="round"/>
<!-- X line 2 -->
<path d="M15.75 9.97L18.232 15.794L18.331 15.75" stroke="#314158" stroke-width="1.5" stroke-linecap="round"/>
</svg>
