<svg fill="none" viewBox="0 0 24 24"><path stroke="currentColor" stroke-width="1.5" d="M12 7.75h6a1 1 0 0 1 1 1v8a1 1 0 0 1-1 1h-6"/><path stroke="currentColor" stroke-linecap="round" stroke-linejoin="round" stroke-width="1.5" d="M16.873 10.25H15.25M16.873 12.75H15.25M16.873 15.25H15.25"/><path stroke="currentColor" stroke-width="1.5" d="M19.805 20.836V8.25a.5.5 0 0 0-.667-.471l-6.055 2.145a.5.5 0 0 0-.333.472v8.293a.5.5 0 0 0 .333.471l6.055 2.146a.5.5 0 0 0 .667-.471Z"/><path stroke="currentColor" stroke-linecap="round" stroke-width="1.5" d="m18.267 9.75-2.517 6.452M15.75 9.97l2.482 5.824.099-.044"/></svg>