<svg width="24" height="24" viewBox="0 0 24 24" fill="none" xmlns="http://www.w3.org/2000/svg">
<path d="M16.8094 5.99962C17.1023 5.70676 17.5771 5.70683 17.87 5.99962C18.1629 6.29251 18.1629 6.76728 17.87 7.06017L12.9999 11.9293L17.87 16.7994C18.1628 17.0923 18.1628 17.5671 17.87 17.86C17.5771 18.1528 17.1023 18.1528 16.8094 17.86L11.9393 12.9899L7.07017 17.86C6.77727 18.1529 6.30251 18.1529 6.00962 17.86C5.71683 17.5671 5.71676 17.0923 6.00962 16.7994L10.8788 11.9293L6.00962 7.06017C5.71686 6.7673 5.71686 6.29249 6.00962 5.99962C6.30249 5.70686 6.7773 5.70686 7.07017 5.99962L11.9393 10.8688L16.8094 5.99962Z" fill="#45556C"/>
</svg>
