<svg width="24" height="24" viewBox="0 0 24 24" fill="none" xmlns="http://www.w3.org/2000/svg">
<path d="M11.1121 7.1521C12.7427 6.9578 14.3920 7.3025 15.8083 8.1336C17.2246 8.9646 18.3299 10.2364 18.9556 11.7546C19.0139 11.9118 19.0139 12.0847 18.9556 12.2418C18.6983 12.8655 18.3584 13.4518 17.9448 13.9848" stroke="#314158" stroke-width="1.5" stroke-linecap="round" stroke-linejoin="round"/>
<path d="M13.4589 13.5102C13.0628 13.8927 12.5324 14.1044 11.9818 14.0996C11.4312 14.0948 10.9044 13.874 10.5151 13.4846C10.1257 13.0953 9.9049 12.5685 9.9001 12.0179C9.8953 11.4673 10.1070 10.9369 10.4895 10.5408" stroke="#314158" stroke-width="1.5" stroke-linecap="round" stroke-linejoin="round"/>
<path d="M15.8360 15.8486C14.9073 16.3980 13.8713 16.7418 12.7981 16.8562C11.7249 16.9706 10.6397 16.8527 9.6161 16.5107C8.5925 16.1687 7.6544 15.6105 6.8655 14.8740C6.0766 14.1375 5.4554 13.2400 5.0440 12.2422C4.9856 12.0851 4.9856 11.9122 5.0440 11.7550C5.6646 10.2499 6.7567 8.9867 8.1562 8.1549" stroke="#314158" stroke-width="1.5" stroke-linecap="round" stroke-linejoin="round"/>
<path d="M5 5L19 19" stroke="#314158" stroke-width="1.5" stroke-linecap="round" stroke-linejoin="round"/>
</svg>
