<svg fill="none" viewBox="0 0 24 24"><path stroke="currentColor" stroke-linecap="round" stroke-width="1.5" d="M4.75 19.75h15"/><path stroke="currentColor" stroke-width="1.5" d="M5.75 20.375v-12.5a1 1 0 0 1 1-1h.985a1 1 0 0 0 .814-.419l.206-.287a1 1 0 0 1 .813-.419h5.668a1 1 0 0 1 .813.419l.206.287a1 1 0 0 0 .813.419h.682a1 1 0 0 1 1 1v12.5"/><path stroke="currentColor" stroke-linecap="round" stroke-width="1.5" d="M9.25 9.375h2M13.25 9.375h2M9.25 12.375h2M13.25 12.375h2"/><path stroke="currentColor" stroke-linejoin="round" stroke-width="1.5" d="M15.25 19.75v-3.5a.5.5 0 0 0-.5-.5h-3a.5.5 0 0 0-.5.5v3.5"/></svg>