<svg fill="none" viewBox="0 0 24 24"><path stroke="currentColor" stroke-linecap="round" stroke-linejoin="round" stroke-width="1.5" d="M10.631 17.631H6.526a1.37 1.37 0 0 1-1.368-1.368V7.368A1.37 1.37 0 0 1 6.526 6h2.669a1.37 1.37 0 0 1 1.156.616l.554.82a1.37 1.37 0 0 0 1.143.617h5.425a1.37 1.37 0 0 1 1.369 1.368v1.71M18.157 15.578h-4.105a.684.684 0 0 0-.684.684v2.053c0 .378.306.684.684.684h4.105a.684.684 0 0 0 .685-.684v-2.053a.684.684 0 0 0-.685-.684"/><path stroke="currentColor" stroke-linecap="round" stroke-linejoin="round" stroke-width="1.5" d="M17.473 15.58V14.21a1.369 1.369 0 0 0-2.737 0v1.368"/></svg>