<svg width="24" height="24" viewBox="0 0 24 24" fill="none" xmlns="http://www.w3.org/2000/svg">
<path d="M 13.5544 18.9987 V 6.5543 C 13.5544 6.1417 13.3905 5.7460 13.0988 5.4543 C 12.8071 5.1626 12.4114 4.9987 11.9988 4.9987 H 6.5544 C 6.1418 4.9987 5.7462 5.1626 5.4544 5.4543 C 5.1627 5.7460 4.9988 6.1417 4.9988 6.5543 V 18.9987" stroke="#314158" stroke-width="1.5" stroke-linecap="round" stroke-linejoin="round"/>
<path d="M 13.5553 12.7762 H 15.1109 C 15.5234 12.7762 15.9191 12.9401 16.2108 13.2318 C 16.5025 13.5236 16.6664 13.9192 16.6664 14.3318 V 15.8873 C 16.6664 16.2999 16.8303 16.6956 17.1220 16.9873 C 17.4138 17.2790 17.8094 17.4429 18.2220 17.4429 C 18.6345 17.4429 19.0302 17.2790 19.3219 16.9873 C 19.6136 16.6956 19.7775 16.2999 19.7775 15.8873 V 10.4444 C 19.7777 10.2392 19.7372 10.0359 19.6585 9.8464 C 19.5797 9.6568 19.4642 9.4847 19.3186 9.3400 L 16.6664 6.5540" stroke="#314158" stroke-width="1.5" stroke-linecap="round" stroke-linejoin="round"/>
<path d="M 4.2213 19.0008 H 14.3324" stroke="#314158" stroke-width="1.5" stroke-linecap="round" stroke-linejoin="round"/>
<path d="M 4.9988 9.6672 H 13.5544" stroke="#314158" stroke-width="1.5" stroke-linecap="round" stroke-linejoin="round"/>
</svg>
