<svg width="24" height="24" viewBox="0 0 24 24" fill="none" xmlns="http://www.w3.org/2000/svg">
<g transform="translate(12, 8) rotate(-90)">
<path d="M0.75 13.75H1.5L1.5 1.75L0.75 1.75H0L0 13.75H0.75ZM1.75 0.75V1.5L3.75 1.5V0.75V0L1.75 0L1.75 0.75ZM4.75 1.75L4 1.75L4 13.75H4.75H5.5L5.5 1.75L4.75 1.75ZM3.75 14.75V14H1.75V14.75V15.5H3.75V14.75ZM4.75 13.75H4C4 13.8881 3.88808 14 3.75 14V14.75V15.5C4.7165 15.5 5.5 14.7165 5.5 13.75H4.75ZM3.75 0.75V1.5C3.88807 1.5 4 1.61193 4 1.75L4.75 1.75L5.5 1.75C5.5 0.783501 4.7165 0 3.75 0V0.75ZM0.75 1.75L1.5 1.75C1.5 1.61193 1.61193 1.5 1.75 1.5L1.75 0.75L1.75 0C0.783501 0 0 0.7835 0 1.75H0.75ZM0.75 13.75H0C0 14.7165 0.783501 15.5 1.75 15.5V14.75V14C1.61193 14 1.5 13.8881 1.5 13.75H0.75Z" fill="#314158" transform="translate(-7.75, -2.75)"/>
</g>
<g transform="translate(9.5, 16) rotate(-90)">
<path d="M4.75 8.75L4 8.75L4.75 8.75ZM4.75 1.75L4 1.75L4.75 1.75ZM0.75 8.75H1.5L1.5 1.75H0.75H0L0 8.75H0.75ZM1.75 0.75V1.5L3.75 1.5V0.75L3.75 0L1.75 0L1.75 0.75ZM4.75 1.75L4 1.75L4 8.75L4.75 8.75H5.5L5.5 1.75L4.75 1.75ZM3.75 9.75V9H1.75V9.75V10.5H3.75V9.75ZM4.75 8.75L4 8.75C4 8.88807 3.88807 9 3.75 9V9.75V10.5C4.7165 10.5 5.5 9.7165 5.5 8.75H4.75ZM3.75 0.75V1.5C3.88807 1.5 4 1.61193 4 1.75L4.75 1.75L5.5 1.75C5.5 0.783501 4.7165 0 3.75 0L3.75 0.75ZM0.75 1.75H1.5C1.5 1.61193 1.61193 1.5 1.75 1.5V0.75L1.75 0C0.783501 0 0 0.7835 0 1.75H0.75ZM0.75 8.75H0C0 9.7165 0.7835 10.5 1.75 10.5V9.75V9C1.61193 9 1.5 8.88807 1.5 8.75H0.75Z" fill="#314158" transform="translate(-5.25, -2.75)"/>
</g>
</svg>
