<svg fill="none" viewBox="0 0 24 24"><path fill="currentColor" d="M23 15v-.75H11v1.5h12zm-13-1h.75v-2h-1.5v2zm1-3v.75h12v-1.5H11zm13 1h-.75v2h1.5v-2zm-1-1v.75a.25.25 0 0 1 .25.25h1.5A1.75 1.75 0 0 0 23 10.25zm-13 1h.75a.25.25 0 0 1 .25-.25v-1.5A1.75 1.75 0 0 0 9.25 12zm1 3v-.75a.25.25 0 0 1-.25-.25h-1.5c0 .966.784 1.75 1.75 1.75zm12 0v.75A1.75 1.75 0 0 0 24.75 14h-1.5a.25.25 0 0 1-.25.25zM15.5 16.5v.75zm-7 0v.75zm7 4v-.75h-7v1.5h7zm-8-1h.75v-2h-1.5v2zm1-3v.75h7v-1.5h-7zm8 1h-.75v2h1.5v-2zm-1-1v.75a.25.25 0 0 1 .25.25h1.5a1.75 1.75 0 0 0-1.75-1.75zm-8 1h.75a.25.25 0 0 1 .25-.25v-1.5a1.75 1.75 0 0 0-1.75 1.75zm1 3v-.75a.25.25 0 0 1-.25-.25h-1.5c0 .966.784 1.75 1.75 1.75zm7 0v.75a1.75 1.75 0 0 0 1.75-1.75h-1.5a.25.25 0 0 1-.25.25z"/></svg>