<svg width="24" height="24" viewBox="0 0 24 24" fill="none" xmlns="http://www.w3.org/2000/svg">
<path d="M3 12C3 14.3869 3.94821 16.6761 5.63604 18.364C7.32387 20.0518 9.61305 21 12 21C14.3869 21 16.6761 20.0518 18.364 18.364C20.0518 16.6761 21 14.3869 21 12C21 9.61305 20.0518 7.32387 18.364 5.63604C16.6761 3.94821 14.3869 3 12 3C9.61305 3 7.32387 3.94821 5.63604 5.63604C3.94821 7.32387 3 9.61305 3 12V12Z" fill="#90A1B9"/>
<path d="M12.0004 15.6004C12.6628 15.6006 13.1994 16.1372 13.1996 16.7996C13.1996 17.4622 12.663 17.9996 12.0004 17.9998C11.3376 17.9998 10.8002 17.4624 10.8002 16.7996C10.8004 16.137 11.3378 15.6004 12.0004 15.6004ZM12.0004 6.45C13.7399 6.45021 15.1498 7.86082 15.1498 9.60039C15.1497 10.8872 14.3784 11.9925 13.2758 12.4812C13.1002 12.559 12.9535 12.6639 12.8598 12.7703C12.7699 12.8724 12.7504 12.9479 12.7504 12.9998V13.7996C12.7504 14.2137 12.4144 14.5494 12.0004 14.5496C11.5862 14.5496 11.2504 14.2138 11.2504 13.7996V12.9998C11.2505 11.9978 12.0666 11.3755 12.6674 11.1092C13.2474 10.8521 13.6497 10.2726 13.6498 9.60039C13.6498 8.68925 12.9115 7.95021 12.0004 7.95C11.0891 7.95 10.35 8.68912 10.35 9.60039C10.3498 10.0144 10.0141 10.3504 9.6 10.3504C9.18592 10.3504 8.85021 10.0144 8.85 9.60039C8.85 7.86069 10.2607 6.45 12.0004 6.45Z" fill="white"/>
</svg>
