<svg width="24" height="24" viewBox="0 0 24 24" fill="none" xmlns="http://www.w3.org/2000/svg">
<circle cx="12" cy="12" r="8" stroke="#314158" stroke-width="1.5"/>
<path d="M12.883 17.217C12.883 17.806 12.406 18.283 11.817 18.283C11.228 18.283 10.75 17.806 10.75 17.217C10.75 16.628 11.228 16.15 11.817 16.15C12.406 16.15 12.883 16.628 12.883 17.217ZM11.817 7.933C13.409 7.934 14.7 9.225 14.7 10.817C14.7 11.995 13.993 13.007 12.984 13.454C12.837 13.519 12.717 13.606 12.643 13.689C12.574 13.769 12.567 13.817 12.567 13.839V14.55C12.567 14.963 12.231 15.299 11.817 15.3C11.403 15.3 11.067 14.964 11.067 14.55V13.839C11.067 12.898 11.832 12.324 12.377 12.083C12.863 11.867 13.2 11.38 13.2 10.817C13.2 10.054 12.581 9.434 11.817 9.434C11.053 9.434 10.433 10.054 10.433 10.817C10.433 11.231 10.097 11.567 9.683 11.567C9.269 11.567 8.933 11.231 8.933 10.817C8.933 9.225 10.225 7.933 11.817 7.933Z" fill="#314158"/>
</svg>
