<svg fill="none" viewBox="0 0 24 24"><path stroke="currentColor" stroke-linecap="round" stroke-linejoin="round" stroke-width="1.5" d="M12 8.112v3.111M13.556 18.999v-2.333a1.556 1.556 0 0 0-3.11 0v2.333M13.556 9.667h-3.11"/><path stroke="currentColor" stroke-linecap="round" stroke-linejoin="round" stroke-width="1.5" d="M16.666 11.223h1.556a1.556 1.556 0 0 1 1.555 1.555v4.667a1.556 1.556 0 0 1-1.555 1.556H5.777a1.556 1.556 0 0 1-1.555-1.556v-7a1.556 1.556 0 0 1 1.555-1.556h1.556"/><path stroke="currentColor" stroke-linecap="round" stroke-linejoin="round" stroke-width="1.5" d="M16.668 18.999V6.554A1.556 1.556 0 0 0 15.112 5H8.89a1.556 1.556 0 0 0-1.556 1.555V19"/></svg>