<svg fill="none" viewBox="0 0 24 24"><path stroke="currentColor" stroke-linecap="round" stroke-linejoin="round" stroke-width="1.5" d="M19.71 12.18v5.7c0 .42-.166.82-.462 1.12-.296.294-.698.46-1.116.46H7.08c-.42 0-.82-.166-1.12-.46-.294-.3-.46-.7-.46-1.12V6.83c0-.42.166-.82.46-1.12.3-.294.7-.46 1.12-.46h5.67"/><path stroke="currentColor" stroke-linecap="round" stroke-linejoin="round" stroke-width="1.5" d="m17.342 8.15-2.436-2.44a1.586 1.586 0 0 0-2.233 0L5.5 12.886"/><path stroke="currentColor" stroke-linecap="round" stroke-linejoin="round" stroke-width="1.5" d="M10.41 11.24a1.58 1.58 0 1 0-.002-3.162 1.58 1.58 0 0 0 .002 3.162M15.5 6.37h4.74M17.87 4v4.74"/></svg>