<svg width="24" height="24" viewBox="0 0 24 24" fill="none" xmlns="http://www.w3.org/2000/svg">
<path d="M 18.9988 14.3320 L 16.5985 11.9318 C 16.3068 11.6402 15.9112 11.4764 15.4988 11.4764 C 15.0863 11.4764 14.6907 11.6402 14.3990 11.9318 L 7.3321 18.9987 M 6.5543 4.9987 H 17.4431 C 18.3023 4.9987 18.9987 5.6952 18.9987 6.5543 V 17.4431 C 18.9987 18.3023 18.3023 18.9987 17.4431 18.9987 H 6.5543 C 5.6952 18.9987 4.9987 18.3023 4.9987 17.4431 V 6.5543 C 4.9987 5.6952 5.6952 4.9987 6.5543 4.9987 Z M 11.2210 9.6654 C 11.2210 10.5245 10.5246 11.2209 9.6655 11.2209 C 8.8064 11.2209 8.1099 10.5245 8.1099 9.6654 C 8.1099 8.8063 8.8064 8.1098 9.6655 8.1098 C 10.5246 8.1098 11.2210 8.8063 11.2210 9.6654 Z" stroke="#314158" stroke-width="1.5" stroke-linecap="round" stroke-linejoin="round"/>
</svg>
