<svg width="24" height="24" viewBox="0 0 24 24" fill="none" xmlns="http://www.w3.org/2000/svg">
<path d="M3 12C3 14.3869 3.94821 16.6761 5.63604 18.364C7.32387 20.0518 9.61305 21 12 21C14.3869 21 16.6761 20.0518 18.364 18.364C20.0518 16.6761 21 14.3869 21 12C21 9.61305 20.0518 7.32387 18.364 5.63604C16.6761 3.94821 14.3869 3 12 3C9.61305 3 7.32387 3.94821 5.63604 5.63604C3.94821 7.32387 3 9.61305 3 12V12Z" fill="#90A1B9"/>
<rect x="11" y="11.16" width="2" height="6.6" rx="1" fill="white"/>
<path d="M12.1 7.5C11.9813 7.5 11.8653 7.53519 11.7667 7.60112C11.668 7.66705 11.5911 7.76076 11.5457 7.87039C11.5003 7.98003 11.4884 8.10067 11.5115 8.21705C11.5347 8.33344 11.5918 8.44035 11.6757 8.52426C11.7596 8.60818 11.8666 8.66532 11.9829 8.68847C12.0993 8.71162 12.22 8.69974 12.3296 8.65433C12.4393 8.60892 12.533 8.53201 12.5989 8.43334C12.6648 8.33467 12.7 8.21867 12.7 8.1C12.7 7.94087 12.6368 7.78826 12.5243 7.67574C12.4117 7.56321 12.2591 7.5 12.1 7.5" fill="white" stroke="#F8FAFC" stroke-linecap="round" stroke-linejoin="round"/>
</svg>
