<svg width="24" height="24" viewBox="0 0 24 24" fill="none" xmlns="http://www.w3.org/2000/svg">
<path d="M3.75 12.75C3.75 15.1369 4.69821 17.4261 6.38604 19.114C8.07387 20.8018 10.363 21.75 12.75 21.75C15.1369 21.75 17.4261 20.8018 19.114 19.114C20.8018 17.4261 21.75 15.1369 21.75 12.75C21.75 10.363 20.8018 8.07387 19.114 6.38604C17.4261 4.69821 15.1369 3.75 12.75 3.75C10.363 3.75 8.07387 4.69821 6.38604 6.38604C4.69821 8.07387 3.75 10.363 3.75 12.75V12.75Z" stroke="#62748E" stroke-width="1.5" stroke-linecap="round" stroke-linejoin="round"/>
<path d="M12.75 16.75V12.75" stroke="#62748E" stroke-width="1.5" stroke-linecap="round" stroke-linejoin="round"/>
<path d="M12.0469 8.75C11.9882 8.75 11.9308 8.76741 11.8819 8.80003C11.8331 8.83266 11.7951 8.87902 11.7726 8.93327C11.7501 8.98752 11.7443 9.04721 11.7557 9.1048C11.7672 9.16239 11.7954 9.21529 11.837 9.25681C11.8785 9.29832 11.9314 9.3266 11.989 9.33805C12.0466 9.34951 12.1062 9.34363 12.1605 9.32116C12.2147 9.29869 12.2611 9.26064 12.2937 9.21182C12.3264 9.163 12.3438 9.1056 12.3438 9.04688C12.3438 8.96814 12.3125 8.89263 12.2568 8.83695C12.2011 8.78128 12.1256 8.75 12.0469 8.75" stroke="#62748E" stroke-width="1.5" stroke-linecap="round" stroke-linejoin="round"/>
</svg>
