<svg fill="none" viewBox="0 0 24 24"><path fill="currentColor" d="M6.75 4.5H6V6h.75V4.5m13 3.75H19v10h1.5v-10zm-2 12v-.75h-8V21h8zm-11-15V6h6.5V4.5h-6.5zm6.5 0V6h3.5V4.5h-3.5zm-5.5 13h.75v-8.5H7v8.5zm2 2v-.75c-.69 0-1.25-.56-1.25-1.25H7A2.75 2.75 0 0 0 9.75 21zm10-2H19c0 .69-.56 1.25-1.25 1.25V21a2.75 2.75 0 0 0 2.75-2.75zm0-10h.75a3.75 3.75 0 0 0-3.75-3.75V6A2.25 2.25 0 0 1 19 8.25z"/><path stroke="currentColor" stroke-width="1.5" d="M4.75 7.75a1.5 1.5 0 1 1 3 0v3.5h-2a1 1 0 0 1-1-1z"/><path stroke="currentColor" stroke-linecap="round" stroke-linejoin="round" stroke-width="1.5" d="M10.75 17.25h6M10.75 14.25h6M10.75 11.25h6M10.75 8.25h3"/><circle cx="8" cy="7" r=".75" fill="currentColor" stroke="currentColor" stroke-width=".5"/></svg>