<svg fill="none" viewBox="0 0 24 24"><path stroke="currentColor" stroke-linecap="round" stroke-linejoin="round" stroke-width="1.5" d="M9.665 4.999H5.777a.78.78 0 0 0-.778.778v5.444c0 .43.348.778.778.778h3.888c.43 0 .778-.349.778-.778V5.777a.78.78 0 0 0-.778-.778M18.22 4.999h-3.888a.78.78 0 0 0-.778.778V8.11c0 .43.348.778.778.778h3.889c.43 0 .778-.349.778-.778V5.777a.78.78 0 0 0-.778-.778M18.22 11.999h-3.888a.78.78 0 0 0-.778.777v5.445c0 .43.348.778.778.778h3.889c.43 0 .778-.348.778-.778v-5.444a.78.78 0 0 0-.778-.778M9.665 15.11H5.777a.78.78 0 0 0-.778.778v2.333c0 .43.348.778.778.778h3.888c.43 0 .778-.348.778-.778v-2.333a.78.78 0 0 0-.778-.778"/></svg>