<svg width="24" height="24" viewBox="0 0 24 24" fill="none" xmlns="http://www.w3.org/2000/svg">
<path fill-rule="evenodd" clip-rule="evenodd" d="M12.2067 18.8749C12.0814 18.9531 11.9233 18.9532 11.7979 18.8751C9.33487 17.3423 6.40798 14.4961 6.408 10.7625C6.408 7.4 9.10846 5 12.0023 5C14.8962 5 17.5932 7.4 17.5967 10.7625C17.6005 14.496 14.6659 17.3421 12.2067 18.8749Z" stroke="#314158" stroke-width="1.5"/>
<path d="M14.1 10.6C14.1 11.9255 13.0255 13 11.7 13C10.3745 13 9.3 11.9255 9.3 10.6C9.3 9.27452 10.3745 8.2 11.7 8.2C13.0255 8.2 14.1 9.27452 14.1 10.6Z" stroke="#314158" stroke-width="1.5"/>
</svg>
