<svg width="24" height="24" viewBox="0 0 24 24" fill="none" xmlns="http://www.w3.org/2000/svg">
<g transform="translate(4.243, 4.243)">
<path d="M14.7636 8.13027C14.6906 9.4829 14.2273 10.7854 13.4299 11.8804C12.6324 12.9754 11.5348 13.8159 10.2698 14.3004C9.00478 14.7849 7.62653 14.8926 6.30163 14.6105C4.97673 14.3284 3.7619 13.6685 2.804 12.7107C1.8461 11.7529 1.18614 10.5382 0.903898 9.2133C0.621653 7.88843 0.729208 6.51017 1.21356 5.24512C1.69791 3.98007 2.53833 2.8824 3.63321 2.08479C4.7281 1.28718 6.03057 0.823791 7.3832 0.75063C7.69873 0.733489 7.8639 1.10902 7.6964 1.37625C7.13614 2.27264 6.89624 3.33247 7.01585 4.38276C7.13546 5.43305 7.60752 6.41179 8.35499 7.15926C9.10246 7.90673 10.0812 8.37879 11.1315 8.4984C12.1818 8.61801 13.2416 8.37811 14.138 7.81785C14.406 7.65034 14.7808 7.81473 14.7636 8.13027Z" stroke="#314158" stroke-width="1.5" stroke-linecap="round" stroke-linejoin="round"/>
</g>
</svg>
