<svg width="24" height="24" viewBox="0 0 24 24" fill="none" xmlns="http://www.w3.org/2000/svg">
<path d="M 13.2844 6.3334 L 11.8801 7.6675" stroke="#314158" stroke-width="1.5" stroke-linecap="round" stroke-linejoin="round"/>
<path d="M 7.0350 9.0723 L 4.9987 8.5106" stroke="#314158" stroke-width="1.5" stroke-linecap="round" stroke-linejoin="round"/>
<path d="M 7.6675 11.8788 L 6.3334 13.2832" stroke="#314158" stroke-width="1.5" stroke-linecap="round" stroke-linejoin="round"/>
<path d="M 8.5106 4.9987 L 9.0723 7.0350" stroke="#314158" stroke-width="1.5" stroke-linecap="round" stroke-linejoin="round"/>
<path d="M 9.8007 10.2589 C 9.7734 10.1948 9.7660 10.1240 9.7793 10.0556 C 9.7926 9.9872 9.8260 9.9243 9.8753 9.8751 C 9.9245 9.8258 9.9874 9.7924 10.0558 9.7791 C 10.1242 9.7658 10.1950 9.7732 10.2592 9.8004 L 17.9829 12.9601 C 18.0516 12.9883 18.1096 13.0376 18.1486 13.1009 C 18.1875 13.1642 18.2054 13.2382 18.1996 13.3122 C 18.1939 13.3863 18.1647 13.4566 18.1164 13.5131 C 18.0682 13.5696 18.0032 13.6093 17.9309 13.6265 L 14.8772 14.3574 C 14.7512 14.3875 14.6359 14.4520 14.5442 14.5435 C 14.4525 14.6351 14.3879 14.7503 14.3576 14.8763 L 13.6274 17.9307 C 13.6104 18.0032 13.5707 18.0685 13.5142 18.1170 C 13.4577 18.1655 13.3871 18.1947 13.3129 18.2005 C 13.2386 18.2063 13.1644 18.1883 13.1010 18.1491 C 13.0377 18.1100 12.9884 18.0517 12.9604 17.9827 L 9.8007 10.2589 Z" stroke="#314158" stroke-width="1.5" stroke-linecap="round" stroke-linejoin="round"/>
</svg>
