<svg fill="none" viewBox="0 0 24 24"><path stroke="currentColor" stroke-linecap="round" stroke-linejoin="round" stroke-width="1.5" d="M14.13 17.75c.535 0 .817 1.024.461 1.668-.232.42-.515.755-.833.985a1.7 1.7 0 0 1-1.008.347 1.7 1.7 0 0 1-1.009-.348c-.317-.229-.6-.565-.832-.984-.341-.616-.098-1.579.391-1.661l.068-.006zM14.985 6.49c-.287-1.006-1.18-1.74-2.236-1.74l-.137.003-.141.014c-.475.06-.92.27-1.276.603a2.46 2.46 0 0 0-.716 1.258l-.008.035-.193.118a6.4 6.4 0 0 0-2.11 2.236 6.7 6.7 0 0 0-.861 3.008l-.001 2.413-.016.116c-.063.35-.197.681-.395.971s-.454.53-.75.706c-.695.41-.416 1.519.383 1.519H18.97l.09-.005c.729-.08.962-1.119.293-1.514l-.126-.08-.13-.096a2.46 2.46 0 0 1-.888-1.5l-.017-.111v-2.382l-.014-.234-.022-.233a6.7 6.7 0 0 0-.998-2.859 6.35 6.35 0 0 0-2.131-2.073l-.006-.035z"/></svg>