<svg fill="none" viewBox="0 0 24 24"><path stroke="currentColor" stroke-linecap="round" stroke-linejoin="round" stroke-width="1.5" d="m10.25 19.221 1.146.637c.22.122.331.184.447.208a.8.8 0 0 0 .314 0c.117-.024.227-.086.448-.208l1.145-.637m-7-1.944-1.11-.617c-.233-.129-.349-.194-.434-.286a.8.8 0 0 1-.166-.283C5 15.972 5 15.839 5 15.573V14.36m0-3.889V9.259c0-.266 0-.4.04-.518a.76.76 0 0 1 .166-.283c.085-.093.201-.157.434-.287l1.11-.616m3.5-1.945 1.146-.636c.22-.123.331-.184.447-.208a.8.8 0 0 1 .314 0c.117.024.227.085.448.208l1.145.636m3.5 1.945 1.11.616c.233.13.35.194.434.287q.056.059.097.13M19 14.36v1.213c0 .266 0 .399-.039.518a.8.8 0 0 1-.167.283c-.084.092-.201.157-.434.286l-1.11.617M19 10.471V9.259c0-.266 0-.4-.039-.518a.8.8 0 0 0-.07-.153m-8.641 2.856 1.75.972m0 0 1.75-.972m-1.75.972v1.944M6.75 9.499l-1.544-.858m12.044.858 1.641-.911M12 18.249V19.9"/></svg>