<svg fill="none" viewBox="0 0 24 24"><path stroke="currentColor" stroke-linecap="round" stroke-linejoin="round" stroke-width="1.5" d="M4.75 7.67V5.75c0-.672 0-1.008.13-1.265a1.2 1.2 0 0 1 .525-.524c.257-.131.593-.131 1.265-.131h10.16c.672 0 1.008 0 1.265.13a1.2 1.2 0 0 1 .524.525c.131.257.131.593.131 1.265v12.08c0 .672 0 1.008-.13 1.265a1.2 1.2 0 0 1-.525.524c-.257.131-.593.131-1.265.131H6.67c-.672 0-1.008 0-1.265-.13a1.2 1.2 0 0 1-.524-.525c-.131-.257-.131-.593-.131-1.265v-.08M14.75 16.75h-6M14.75 12.75h-3M14.75 8.75h-6"/><path stroke="currentColor" stroke-linecap="round" stroke-width="1.5" d="M3 12h3.707M3 12l2.5-2.5M3 12l2.5 2.5"/></svg>