<svg fill="none" viewBox="0 0 24 24"><path stroke="currentColor" stroke-linecap="round" stroke-linejoin="round" stroke-width="1.5" d="M18.313 14.817V9.206a1.4 1.4 0 0 0-.702-1.214l-4.91-2.805a1.4 1.4 0 0 0-1.402 0L6.39 7.992a1.4 1.4 0 0 0-.7 1.214v5.61a1.4 1.4 0 0 0 .7 1.214l4.91 2.805a1.4 1.4 0 0 0 1.403 0l4.91-2.805a1.4 1.4 0 0 0 .7-1.214"/><path stroke="currentColor" stroke-linecap="round" stroke-linejoin="round" stroke-width="1.5" d="M5.877 8.477 12 12.019l6.123-3.542M12 17.725v-5.713M15.157 10.19 8.844 6.55"/></svg>