<svg width="24" height="24" viewBox="0 0 24 24" fill="none" xmlns="http://www.w3.org/2000/svg">
<path d="M 18.3127 14.8165 V 9.2056 C 18.3125 8.9596 18.2475 8.7180 18.1244 8.5051 C 18.0013 8.2921 17.8244 8.1152 17.6114 7.9922 L 12.7018 5.1868 C 12.4886 5.0636 12.2467 4.9988 12.0005 4.9988 C 11.7542 4.9988 11.5123 5.0636 11.2991 5.1868 L 6.3895 7.9922 C 6.1765 8.1152 5.9995 8.2921 5.8764 8.5051 C 5.7533 8.7180 5.6884 8.9596 5.6881 9.2056 V 14.8165 C 5.6884 15.0625 5.7533 15.3041 5.8764 15.5171 C 5.9995 15.7300 6.1765 15.9069 6.3895 16.0299 L 11.2991 18.8354 C 11.5123 18.9585 11.7542 19.0233 12.0005 19.0233 C 12.2467 19.0233 12.4886 18.9585 12.7018 18.8354 L 17.6114 16.0299 C 17.8244 15.9069 18.0013 15.7300 18.1244 15.5171 C 18.2475 15.3041 18.3125 15.0625 18.3127 14.8165 Z" stroke="#314158" stroke-width="1.5" stroke-linecap="round" stroke-linejoin="round"/>
<path d="M 5.8771 8.4766 L 12.0001 12.0186 L 18.1230 8.4766" stroke="#314158" stroke-width="1.5" stroke-linecap="round" stroke-linejoin="round"/>
<path d="M 12.0000 17.7248 V 12.0118" stroke="#314158" stroke-width="1.5" stroke-linecap="round" stroke-linejoin="round"/>
<path d="M 15.1566 10.1900 L 8.8443 6.5499" stroke="#314158" stroke-width="1.5" stroke-linecap="round" stroke-linejoin="round"/>
</svg>
