<svg fill="none" viewBox="0 0 24 24"><path stroke="currentColor" stroke-linecap="round" stroke-linejoin="round" stroke-width="1.5" d="M12 19a7 7 0 1 1 0-14c1.857 0 3.637.664 4.95 1.845S19 9.63 19 11.3a3.5 3.5 0 0 1-3.5 3.5h-1.575a1.224 1.224 0 0 0-.98 1.96l.21.28a1.225 1.225 0 0 1-.98 1.96z"/><path fill="currentColor" stroke="currentColor" stroke-linecap="round" stroke-linejoin="round" stroke-width="1.5" d="M13.5 8.95a.35.35 0 1 0 0-.7.35.35 0 0 0 0 .7M16.3 11.75a.35.35 0 1 0 0-.7.35.35 0 0 0 0 .7M8.6 13.15a.35.35 0 1 0 0-.7.35.35 0 0 0 0 .7M10 9.65a.35.35 0 1 0 0-.7.35.35 0 0 0 0 .7"/></svg>