<svg width="24" height="24" viewBox="0 0 24 24" fill="none" xmlns="http://www.w3.org/2000/svg">
<g transform="translate(4.25, 4.25)">
<path d="M7.75 14.75C5.89348 14.75 4.11301 14.0125 2.80025 12.6997C1.4875 11.387 0.75 9.60652 0.75 7.75C0.75 5.89348 1.4875 4.11301 2.80025 2.80025C4.11301 1.4875 5.89348 0.75 7.75 0.75C9.60652 0.75 11.387 1.41375 12.6997 2.59523C14.0125 3.77671 14.75 5.37914 14.75 7.05C14.75 7.97826 14.3813 8.8685 13.7249 9.52487C13.0685 10.1813 12.1783 10.55 11.25 10.55H9.675C9.4475 10.55 9.2245 10.6133 9.03098 10.733C8.83746 10.8526 8.68107 11.0237 8.57933 11.2272C8.47759 11.4306 8.43452 11.6584 8.45495 11.885C8.47538 12.1116 8.5585 12.328 8.695 12.51L8.905 12.79C9.0415 12.972 9.12462 13.1884 9.14505 13.415C9.16548 13.6416 9.12241 13.8694 9.02067 14.0728C8.91893 14.2763 8.76254 14.4474 8.56902 14.567C8.3755 14.6866 8.1525 14.75 7.925 14.75H7.75Z" stroke="#314158" stroke-width="1.5" stroke-linecap="round" stroke-linejoin="round"/>
</g>
<g transform="translate(12.4, 7.5)">
<path d="M1.1 1.45C1.2933 1.45 1.45 1.2933 1.45 1.1C1.45 0.9067 1.2933 0.75 1.1 0.75C0.9067 0.75 0.75 0.9067 0.75 1.1C0.75 1.2933 0.9067 1.45 1.1 1.45Z" fill="#314158" stroke="#314158" stroke-width="1.5" stroke-linecap="round" stroke-linejoin="round"/>
</g>
<g transform="translate(15.2, 10.3)">
<path d="M1.1 1.45C1.2933 1.45 1.45 1.2933 1.45 1.1C1.45 0.9067 1.2933 0.75 1.1 0.75C0.9067 0.75 0.75 0.9067 0.75 1.1C0.75 1.2933 0.9067 1.45 1.1 1.45Z" fill="#314158" stroke="#314158" stroke-width="1.5" stroke-linecap="round" stroke-linejoin="round"/>
</g>
<g transform="translate(7.5, 11.7)">
<path d="M1.1 1.45C1.2933 1.45 1.45 1.2933 1.45 1.1C1.45 0.9067 1.2933 0.75 1.1 0.75C0.9067 0.75 0.75 0.9067 0.75 1.1C0.75 1.2933 0.9067 1.45 1.1 1.45Z" fill="#314158" stroke="#314158" stroke-width="1.5" stroke-linecap="round" stroke-linejoin="round"/>
</g>
<g transform="translate(8.9, 8.2)">
<path d="M1.1 1.45C1.2933 1.45 1.45 1.2933 1.45 1.1C1.45 0.9067 1.2933 0.75 1.1 0.75C0.9067 0.75 0.75 0.9067 0.75 1.1C0.75 1.2933 0.9067 1.45 1.1 1.45Z" fill="#314158" stroke="#314158" stroke-width="1.5" stroke-linecap="round" stroke-linejoin="round"/>
</g>
</svg>
