<svg fill="none" viewBox="0 0 24 24"><path fill="currentColor" d="m14.711 18.199.7.27.001-.002zm4.361-11.41-.7-.27-.001.003zm-1.368-1.367.268.7.002-.001zM6.248 9.809l-.269-.701v.001zm.119 2.154-.22.717h.001zm6.157 6.118.72-.212-.002-.006zm-1.876-4.216-.53.531zm-1.46 3.197-.749.043a.75.75 0 0 0 1.215.545zm2.44-1.938.718-.218zm-.416-.695.53-.53zm2.383 4.821V20c1.015 0 1.549-.839 1.816-1.531l-.7-.27-.7-.269c-.102.264-.204.42-.286.501-.065.066-.1.069-.13.069zm1.116-1.051.701.268 4.36-11.41-.7-.268-.701-.267-4.36 11.41zm4.361-11.41.699.271c.126-.325.229-.684.229-1.044h-1.5c0 .09-.029.247-.128.503zm-.595-1.539V4.5c-.343 0-.703.091-1.043.222l.27.7.27.699c.241-.093.41-.121.503-.121zm-.773.172-.268-.701L5.979 9.108l.269.701.268.7 11.456-4.387zM6.248 9.809l-.269-.7c-.634.243-1.479.779-1.479 1.79H6c0-.026.004-.063.07-.13.078-.079.222-.174.446-.26zm-.998 1.09H4.5c0 .541.22.969.59 1.273.321.263.726.406 1.057.508l.22-.717.219-.718c-.316-.096-.47-.171-.545-.233a.1.1 0 0 1-.025-.025l-.005-.007-.006-.018A.3.3 0 0 1 6 10.899zm7.274 7.182-.719.211c.1.343.241.759.501 1.089.3.382.731.619 1.289.619v-1.5a.3.3 0 0 1-.059-.005l-.014-.004-.009-.006-.027-.03c-.068-.086-.145-.255-.242-.586zm-1.312-3.652.53-.53-.564-.564-.53.53-.53.531.563.563zm-.564-.564.53-.53-.233-.233-.531.53-.53.53.234.234zm8.602-7.849H20c0-.364-.109-.73-.365-1.022l-.563.495-.564.495-.011-.016-.003-.005a.2.2 0 0 1 .006.053zm-.178-.527.563-.495c-.303-.345-.73-.494-1.158-.494V6c.044 0 .062.007.06.007l-.01-.006q-.01-.007-.019-.017zm-8.424 8.376.529.532L19.6 6.021l-.528-.532-.529-.532-8.424 8.377zm.98 1.259-.718.217.896 2.957.718-.217.718-.218-.896-2.957zm-2.44 1.938.466.588 2.44-1.939-.466-.587-.467-.587-2.44 1.938zm-2.821-5.099-.219.717 2.576.786.219-.718.219-.717-2.576-.786zm2.821 5.099.748-.042-.244-4.314-.749.042-.749.043.245 4.314zm2.024-2.633-.531.53a.9.9 0 0 1 .229.382l.718-.217.718-.218a2.4 2.4 0 0 0-.604-1.007zm-.798-.797.531-.53a4.3 4.3 0 0 0-1.783-1.071l-.219.717-.219.718c.438.133.836.373 1.16.696z"/></svg>