<svg width="24" height="24" viewBox="0 0 24 24" fill="none" xmlns="http://www.w3.org/2000/svg">
<path d="M15.9469 13.6839L18.3153 16.2892C18.4235 16.3995 18.4969 16.5392 18.5265 16.6909C18.5561 16.8426 18.5405 16.9996 18.4816 17.1425C18.4228 17.2854 18.3233 17.4079 18.1955 17.4947C18.0677 17.5816 17.9172 17.6291 17.7627 17.6313H6.2364C6.0819 17.6291 5.9314 17.5816 5.8036 17.4947C5.6758 17.4079 5.5763 17.2854 5.5175 17.1425C5.4586 16.9996 5.4430 16.8426 5.4726 16.6909C5.5022 16.5392 5.5756 16.3995 5.6838 16.2892L8.0522 13.6839H7.8153C7.6608 13.6817 7.5103 13.6343 7.3825 13.5474C7.2548 13.4605 7.1553 13.3380 7.0964 13.1951C7.0376 13.0522 7.0220 12.8952 7.0516 12.7435C7.0811 12.5918 7.1545 12.4522 7.2627 12.3418L9.6312 9.7366H9.4733C9.3120 9.7511 9.1502 9.7157 9.0097 9.6352C8.8692 9.5547 8.7569 9.4329 8.6880 9.2864C8.6191 9.1399 8.5968 8.9758 8.6243 8.8162C8.6518 8.6567 8.7277 8.5094 8.8417 8.3945L11.9995 4.9997L15.1574 8.3945C15.2714 8.5094 15.3473 8.6567 15.3748 8.8162C15.4023 8.9758 15.3801 9.1399 15.3112 9.2864C15.2422 9.4329 15.1299 9.5547 14.9894 9.6352C14.8490 9.7157 14.6871 9.7511 14.5259 9.7366H14.3680L16.7364 12.3418C16.8446 12.4522 16.9180 12.5918 16.9476 12.7435C16.9772 12.8952 16.9616 13.0522 16.9027 13.1951C16.8439 13.3380 16.7444 13.4605 16.6166 13.5474C16.4888 13.6343 16.3383 13.6817 16.1838 13.6839H15.9469Z" stroke="#314158" stroke-width="1.5" stroke-linecap="round" stroke-linejoin="round"/>
<path d="M12 19.9986V17.6302" stroke="#314158" stroke-width="1.5" stroke-linecap="round" stroke-linejoin="round"/>
</svg>
