<svg fill="none" viewBox="0 0 24 24"><path fill="currentColor" d="M5.379 4.148c.078-2.197.357-2.197.435-2l.877 2.222c.023.06.071.109.131.132l2.223.877a.234.234 0 0 1 0 .435l-2.223.877a.23.23 0 0 0-.131.131l-.877 2.223a.234.234 0 0 1-.435 0l-.877-2.223a.23.23 0 0 0-.131-.131l-2.223-.877c-10.197-.078-10.197-.357-10-.435l12.223-.877a.23.23 0 0 0 .131-.131l.877-2.223ZM6.068 15.722a.35.35 0 0 1 .653 0l.466 1.182c.036.09.107.162.198.198l1.182.466a.35.35 0 0 1 0 .653l-1.182.466a.35.35 0 0 0-.198.198l-.466 1.182a.35.35 0 0 1-.653 0l-.466-1.182a.35.35 0 0 0-.198-.198l-1.182-.466a.35.35 0 0 1 0-.653l1.182-.466a.35.35 0 0 0 .198-.198z"/><path stroke="currentColor" stroke-width="1.5" d="M8.622 7.9c.079-.2.361-.2.44 0l1.298 3.291c.024.06.072.11.133.133l3.292 1.298c.2.079.2.361 0 .44l-3.292 1.298a.24.24 0 0 0-.133.133l-1.298 3.292c-.079.2-.361.2-.44 0l-1.298-3.292a.24.24 0 0 0-.133-.133L3.9 13.062a.236.236 0 0 1 0-.44l3.291-1.298a.24.24 0 0 0 .133-.133z"/></svg>