<svg width="24" height="24" viewBox="0 0 24 24" fill="none" xmlns="http://www.w3.org/2000/svg">
<!-- Small star top-right -->
<path d="M13.3788 2.148C13.4567 -0.0494 13.7361 -0.0494 13.814 0.148L14.6905 2.3705C14.7143 2.4308 14.762 2.4785 14.8223 2.5023L17.0447 3.3788C17.2421 3.4567 17.2421 3.7361 17.0447 3.814L14.8223 4.6905C14.762 4.7143 14.7143 4.762 14.6905 4.8223L13.814 7.0447C13.7361 7.2421 13.4567 7.2421 13.3788 7.0447L12.5023 4.8223C12.4785 4.762 12.4308 4.7143 12.3705 4.6905L10.148 3.814C-0.0494 3.7361 -0.0494 3.4567 0.148 3.3788L12.3705 2.5023C12.4308 2.4785 12.4785 2.4308 12.5023 2.3705L13.3788 0.148Z" fill="#314158" transform="translate(-8, 2)"/>
<!-- Small star bottom-left -->
<path d="M2.0682 0.222C2.185 -0.074 2.6041 -0.074 2.721 0.222L3.1872 1.4043C3.2229 1.4947 3.2944 1.5663 3.3849 1.602L4.567 2.0682C4.8632 2.185 4.8632 2.6041 4.567 2.721L3.3849 3.1872C3.2944 3.2229 3.2229 3.2944 3.1872 3.3849L2.721 4.567C2.6041 4.8632 2.185 4.8632 2.0682 4.567L1.602 3.3849C1.5663 3.2944 1.4947 3.2229 1.4043 3.1872L0.2221 2.721C-0.074 2.6041 -0.074 2.185 0.2221 2.0682L1.4043 1.602C1.4947 1.5663 1.5663 1.4947 1.602 1.4043L2.0682 0.222Z" fill="#314158" transform="translate(4, 15.5)"/>
<!-- Large star center-left -->
<path d="M5.6223 0.8996C5.7009 0.7001 5.9833 0.7001 6.062 0.8996L7.3601 4.191C7.3841 4.2519 7.4324 4.3001 7.4933 4.3242L10.7846 5.6223C10.9841 5.7009 10.9841 5.9833 10.7846 6.062L7.4933 7.3601C7.4324 7.3841 7.3841 7.4324 7.3601 7.4933L6.062 10.7846C5.9833 10.9841 5.7009 10.9841 5.6223 10.7846L4.3242 7.4933C4.3001 7.4324 4.2519 7.3841 4.191 7.3601L0.8996 6.062C0.7001 5.9833 0.7001 5.7009 0.8996 5.6223L4.191 4.3242C4.2519 4.3001 4.3001 4.2519 4.3242 4.191L5.6223 0.8996Z" stroke="#314158" stroke-width="1.5" transform="translate(3, 7)"/>
</svg>
