<svg fill="none" viewBox="0 0 24 24"><path stroke="currentColor" stroke-linecap="round" stroke-linejoin="round" stroke-width="1.5" d="M8.851 9.49a11 11 0 0 0 2.142 3.017 11 11 0 0 0 3.018 2.142c.093.045.14.067.2.085.21.061.47.017.648-.111.05-.036.094-.08.18-.165.263-.263.394-.395.526-.48a1.5 1.5 0 0 1 1.641 0c.132.085.264.217.527.48l.146.146c.4.4.6.6.709.815.216.427.216.931 0 1.359-.109.214-.309.414-.709.814l-.118.119c-.399.398-.598.598-.869.75-.3.169-.767.29-1.112.289-.31 0-.523-.061-.948-.182A14.3 14.3 0 0 1 8.6 14.901a14.3 14.3 0 0 1-3.667-6.233c-.12-.425-.181-.637-.182-.948-.001-.345.12-.812.29-1.112.151-.271.35-.47.75-.869l.118-.119c.4-.4.6-.6.814-.708a1.5 1.5 0 0 1 1.359 0c.215.109.415.309.815.708l.146.147c.263.263.395.395.48.527a1.5 1.5 0 0 1 0 1.64c-.085.133-.217.264-.48.527-.086.086-.129.13-.165.18a.79.79 0 0 0-.11.648c.017.06.04.107.084.2"/></svg>