<svg fill="none" viewBox="0 0 24 24"><path stroke="currentColor" stroke-width="1.5" d="M13.419 6.01a.72.72 0 0 1 .475-.21c.23 0 .58.058 1.018.204a5.2 5.2 0 0 1 2.056 1.282 5.2 5.2 0 0 1 1.282 2.056c.146.437.204.789.204 1.018a.66.66 0 0 1-.183.468c-.988.988-1.689 1.326-2.893.973-.626.748-.832 1.46-.832 2.467 0 1.585-.182 2.421-.835 3.074h-.02c-.611.61-1.588.61-2.199 0l-4.58-4.58a1.55 1.55 0 0 1 0-2.199v-.02c.652-.652 1.611-.83 3.08-.83 1.074 0 1.618-.161 2.478-.821-.369-1.108-.06-1.916.949-2.882Z"/><path stroke="currentColor" stroke-linecap="round" stroke-width="1.5" d="m9.17 17-2.53 2.53"/></svg>