<svg fill="none" viewBox="0 0 24 24"><path fill="currentColor" d="M20.414 12.662a1 1 0 0 0 0-1.325l-1.124-1.272a1 1 0 0 1-.246-.755l.156-1.68a1 1 0 0 0-.776-1.07l-1.677-.376a1 1 0 0 1-.64-.463l-.878-1.473a1 1 0 0 0-1.25-.408l-1.588.675a1 1 0 0 1-.782 0l-1.59-.675a1 1 0 0 0-1.249.406l-.877 1.466a1 1 0 0 1-.642.463l-1.673.371A1 1 0 0 0 4.8 7.615l.157 1.688a1 1 0 0 1-.245.753l-1.128 1.281a1 1 0 0 0 .001 1.323l1.126 1.274a1 1 0 0 1 .246.755L4.8 16.377a1 1 0 0 0 .777 1.068l1.677.377a1 1 0 0 1 .639.462l.877 1.465a1 1 0 0 0 1.252.406l1.587-.68a1 1 0 0 1 .784 0l1.588.675a1 1 0 0 0 1.249-.407l.879-1.467a1 1 0 0 1 .638-.462l1.678-.377a1 1 0 0 0 .776-1.069l-.156-1.68a1 1 0 0 1 .246-.755z"/><path stroke="currentColor" stroke-linecap="round" stroke-linejoin="round" stroke-width="1.2" d="m10.343 12.908 1.257 1.637 2.37-4.926"/></svg>