<svg fill="none" viewBox="0 0 24 24"><path stroke="currentColor" stroke-linecap="round" stroke-linejoin="round" stroke-width="1.5" d="M12 5a7 7 0 0 1 5.166 11.725"/><path fill="currentColor" d="M11.611 9.252a.437.437 0 0 1 .778 0l.74 1.431c.042.08.107.146.188.188l1.431.74a.437.437 0 0 1 0 .778l-1.431.74a.44.44 0 0 0-.188.188l-.74 1.431a.437.437 0 0 1-.778 0l-.74-1.431a.44.44 0 0 0-.188-.188l-1.431-.74a.437.437 0 0 1 0-.778l1.431-.74a.44.44 0 0 0 .188-.188z"/><path stroke="currentColor" stroke-linecap="round" stroke-linejoin="round" stroke-width="1.5" d="M5.35 9.813a7 7 0 0 0-.35 2.1M5.581 14.8a7 7 0 0 0 1.701 2.38M6.845 7.265a7 7 0 0 1 .624-.6M9.65 18.594a7 7 0 0 0 5.342-.266"/></svg>