<svg fill="none" viewBox="0 0 24 24"><path stroke="currentColor" stroke-width="1.5" d="M3.6 9.7h16"/><path fill="currentColor" d="M17.1 3.7c.631 0 1.143.505 1.143 1.129v4.415c.228.083.823.34 1.371.702V4.829c0-1.372-1.125-2.483-2.514-2.483H6.129c-1.389 0-2.515 1.111-2.515 2.483v10.033l.014.254c.129 1.252 1.199 2.23 2.5 2.23h5.943c-.365-.221-.761-.995-.914-1.355H6.13a1.14 1.14 0 0 1-1.137-1.013l-.006-.116V4.83c0-.624.511-1.129 1.143-1.129z"/><path stroke="currentColor" stroke-linecap="round" stroke-width="1.5" d="M15.4 3.7v3.5M9.4 3.7v3.5"/><path stroke="currentColor" stroke-linecap="round" stroke-linejoin="round" stroke-width="1.5" d="M17.7 13.7a3.75 3.75 0 1 1 0 7.5 3.75 3.75 0 0 1 0-7.5"/><path stroke="currentColor" stroke-linecap="round" stroke-linejoin="round" stroke-width="1.5" d="m18.95 19.7-1-.583V17.7"/></svg>