<svg width="24" height="24" viewBox="0 0 24 24" fill="none" xmlns="http://www.w3.org/2000/svg">
<path d="M 4.9995 16.6654 C 4.7933 16.6654 4.5954 16.5834 4.4496 16.4376 C 4.3037 16.2917 4.2218 16.0939 4.2218 15.8876 V 5.7765 C 4.2218 5.5702 4.3037 5.3724 4.4496 5.2265 C 4.5954 5.0807 4.7933 4.9987 4.9995 4.9987 H 8.8884 C 9.7135 4.9987 10.5049 5.3265 11.0883 5.9099 C 11.6718 6.4934 11.9995 7.2847 11.9995 8.1098 C 11.9995 7.2847 12.3273 6.4934 12.9108 5.9099 C 13.4942 5.3265 14.2856 4.9987 15.1107 4.9987 H 18.9996 C 19.2059 4.9987 19.4037 5.0807 19.5495 5.2265 C 19.6954 5.3724 19.7774 5.5702 19.7774 5.7765 V 15.8876 C 19.7774 16.0939 19.6954 16.2917 19.5495 16.4376 C 19.4037 16.5834 19.2059 16.6654 18.9996 16.6654 H 14.3329 C 13.7141 16.6654 13.1205 16.9112 12.6830 17.3488 C 12.2454 17.7864 11.9995 18.3799 11.9995 18.9987 C 11.9995 18.3799 11.7537 17.7864 11.3161 17.3488 C 10.8785 16.9112 10.2850 16.6654 9.6662 16.6654 H 4.9995 Z" stroke="#314158" stroke-width="1.5" stroke-linecap="round" stroke-linejoin="round"/>
<path d="M 12.0000 8.1118 V 19.0007" stroke="#314158" stroke-width="1.5" stroke-linecap="round" stroke-linejoin="round"/>
<path d="M 15.1106 12.0000 H 16.6662" stroke="#314158" stroke-width="1.5" stroke-linecap="round" stroke-linejoin="round"/>
<path d="M 15.1106 8.8896 H 16.6662" stroke="#314158" stroke-width="1.5" stroke-linecap="round" stroke-linejoin="round"/>
<path d="M 7.3346 12.0000 H 8.8902" stroke="#314158" stroke-width="1.5" stroke-linecap="round" stroke-linejoin="round"/>
<path d="M 7.3346 8.8896 H 8.8902" stroke="#314158" stroke-width="1.5" stroke-linecap="round" stroke-linejoin="round"/>
</svg>
