<svg fill="none" viewBox="0 0 24 24"><path stroke="currentColor" stroke-linecap="round" stroke-width="1.5" d="M19 15c0-3.977-2.915-7-7-7-4.086 0-7 3.023-7 7"/><path fill="currentColor" d="m12.623 12.662 1.049-.633c.087-.044.196-.044.262.043.065.088.087.175.043.262l-.633 1.048c-.137.232-.256.473-.375.711q-.104.215-.215.425c-.065.13-.131.261-.175.37a1.12 1.12 0 0 1-.983.612c-.087 0-.174 0-.262-.022a1.09 1.09 0 0 1-.808-.808 1.13 1.13 0 0 1 .59-1.244 5 5 0 0 1 .371-.175 14 14 0 0 0 1.136-.59"/></svg>