<svg fill="none" viewBox="0 0 24 24"><path stroke="currentColor" stroke-linecap="round" stroke-linejoin="round" stroke-width="1.5" d="M18.464 12.703a.8.8 0 0 0 .115.416.9.9 0 0 0 .324.314l.11.055.022.013c.551.307.962.817 1.131 1.426.169.607.08 1.251-.242 1.792l-.183.312-.004.008c-.325.54-.855.926-1.465 1.083a2.47 2.47 0 0 1-1.79-.22l-.125-.063-.022-.011a.96.96 0 0 0-.936 0l-.355.198a.9.9 0 0 0-.331.317.8.8 0 0 0-.116.414v.143c0 .633-.262 1.234-.718 1.672a2.45 2.45 0 0 1-1.696.678h-.366a2.45 2.45 0 0 1-1.696-.678 2.32 2.32 0 0 1-.718-1.672v-.143a.75.75 0 0 0-.116-.414.9.9 0 0 0-.329-.316l-.354-.199a.99.99 0 0 0-.939 0l-.146.075a2.48 2.48 0 0 1-1.79.219 2.4 2.4 0 0 1-1.466-1.083l-.183-.305-.001-.001a2.3 2.3 0 0 1-.245-1.798 2.36 2.36 0 0 1 1.131-1.426l.114-.067a.9.9 0 0 0 .342-.323.8.8 0 0 0 .115-.416v-.406a.8.8 0 0 0-.115-.416.9.9 0 0 0-.342-.323l-.114-.067a2.36 2.36 0 0 1-1.131-1.426 2.3 2.3 0 0 1 .245-1.798l.001-.001.183-.305.132-.195a2.4 2.4 0 0 1 1.334-.888 2.47 2.47 0 0 1 1.789.219l.126.064.021.011a.96.96 0 0 0 .826.052l.11-.052.355-.198.002-.001a.9.9 0 0 0 .329-.316.8.8 0 0 0 .116-.413V6.1c0-.633.263-1.234.718-1.672a2.45 2.45 0 0 1 1.696-.678h.366c.63 0 1.241.241 1.696.678.456.438.718 1.039.718 1.672v.143c0 .144.039.287.116.414a.9.9 0 0 0 .229.251l.1.065.002.001.355.198a.97.97 0 0 0 .936 0l.147-.075a2.47 2.47 0 0 1 1.79-.219c.534.137 1.006.45 1.334.888l.131.195.183.305.001.001c.325.542.414 1.189.245 1.798a2.36 2.36 0 0 1-1.122 1.419l-.123.074-.011.005a.9.9 0 0 0-.331.318.8.8 0 0 0-.115.416z"/><circle cx="12" cy="12.5" r="3" stroke="currentColor" stroke-linecap="round" stroke-linejoin="round" stroke-width="1.5"/></svg>