<svg fill="none" viewBox="0 0 24 24"><path stroke="currentColor" stroke-linecap="round" stroke-linejoin="round" stroke-width="1.5" d="M5.75 6.583a.833.833 0 0 1 .833-.833h3.334a.833.833 0 0 1 .833.833v3.334a.833.833 0 0 1-.833.833H6.583a.833.833 0 0 1-.833-.833zM5.75 15.583a.833.833 0 0 1 .833-.833h3.334a.833.833 0 0 1 .833.833v3.334a.833.833 0 0 1-.833.833H6.583a.833.833 0 0 1-.833-.833zM14.75 15.583a.833.833 0 0 1 .833-.833h3.334a.833.833 0 0 1 .833.833v3.334a.833.833 0 0 1-.833.833h-3.334a.833.833 0 0 1-.833-.833zM14.75 7.75h5M17.25 5.25v5"/></svg>