<svg width="24" height="24" viewBox="0 0 24 24" fill="none" xmlns="http://www.w3.org/2000/svg">
<path d="M5.75 6.58333C5.75 6.36232 5.8378 6.15036 5.99408 5.99408C6.15036 5.8378 6.36232 5.75 6.58333 5.75H9.91667C10.1377 5.75 10.3496 5.8378 10.5059 5.99408C10.6622 6.15036 10.75 6.36232 10.75 6.58333V9.91667C10.75 10.1377 10.6622 10.3496 10.5059 10.5059C10.3496 10.6622 10.1377 10.75 9.91667 10.75H6.58333C6.36232 10.75 6.15036 10.6622 5.99408 10.5059C5.8378 10.3496 5.75 10.1377 5.75 9.91667V6.58333Z" stroke="#314158" stroke-width="1.5" stroke-linecap="round" stroke-linejoin="round"/>
<path d="M5.75 15.58333C5.75 15.36232 5.8378 15.15036 5.99408 14.99408C6.15036 14.8378 6.36232 14.75 6.58333 14.75H9.91667C10.1377 14.75 10.3496 14.8378 10.5059 14.99408C10.6622 15.15036 10.75 15.36232 10.75 15.58333V18.91667C10.75 19.13768 10.6622 19.34964 10.5059 19.50592C10.3496 19.6622 10.1377 19.75 9.91667 19.75H6.58333C6.36232 19.75 6.15036 19.6622 5.99408 19.50592C5.8378 19.34964 5.75 19.13768 5.75 18.91667V15.58333Z" stroke="#314158" stroke-width="1.5" stroke-linecap="round" stroke-linejoin="round"/>
<path d="M14.75 15.58333C14.75 15.36232 14.8378 15.15036 14.99408 14.99408C15.15036 14.8378 15.36232 14.75 15.58333 14.75H18.91667C19.13768 14.75 19.34964 14.8378 19.50592 14.99408C19.6622 15.15036 19.75 15.36232 19.75 15.58333V18.91667C19.75 19.13768 19.6622 19.34964 19.50592 19.50592C19.34964 19.6622 19.13768 19.75 18.91667 19.75H15.58333C15.36232 19.75 15.15036 19.6622 14.99408 19.50592C14.8378 19.34964 14.75 19.13768 14.75 18.91667V15.58333Z" stroke="#314158" stroke-width="1.5" stroke-linecap="round" stroke-linejoin="round"/>
<path d="M14.75 7.75H19.75" stroke="#314158" stroke-width="1.5" stroke-linecap="round" stroke-linejoin="round"/>
<path d="M17.25 5.25V10.25" stroke="#314158" stroke-width="1.5" stroke-linecap="round" stroke-linejoin="round"/>
</svg>
