<svg width="24" height="24" viewBox="0 0 24 24" fill="none" xmlns="http://www.w3.org/2000/svg">
<!-- Outer @ circle -->
<path d="M17.0806 18.25C15.8891 19.1894 14.385 19.75 12.75 19.75C8.88401 19.75 5.75 16.616 5.75 12.75C5.75 8.88401 8.88401 5.75 12.75 5.75C17.25 5.75 19.25 9.01798 19.25 12.884V12.964C19.25 14.2887 18.1552 15.3514 16.831 15.312C15.6433 15.2766 14.6691 14.3599 14.5615 13.1766L14.25 9.75" stroke="#314158" stroke-width="1.5" stroke-linecap="round"/>
<!-- Inner circle -->
<path d="M14.9966 14.454C14.515 15.118 13.7329 15.55 12.85 15.55C11.3865 15.55 10.2 14.3636 10.2 12.9C10.2 11.4365 11.3865 10.25 12.85 10.25C13.343 10.25 13.8046 10.3846 14.2 10.6192" stroke="#314158" stroke-width="1.5"/>
</svg>
