<svg fill="none" viewBox="0 0 24 24"><path stroke="currentColor" stroke-linecap="round" stroke-linejoin="round" stroke-width="1.5" d="M16.4 4.25c.268 0 .514 0 .718.017.213.017.447.056.677.173.329.168.597.436.765.765.117.23.156.464.173.677.017.204.017.45.017.718v10.8c0 .268 0 .514-.017.718a1.8 1.8 0 0 1-.173.677c-.168.329-.436.597-.765.765-.23.117-.464.156-.677.173-.204.017-.45.017-.718.017H7.6c-.268 0-.514 0-.718-.017a1.8 1.8 0 0 1-.677-.173 1.75 1.75 0 0 1-.765-.765 1.8 1.8 0 0 1-.173-.677c-.017-.204-.017-.45-.017-.718V6.6l.002-.382q.002-.181.015-.336c.017-.213.056-.447.173-.677a1.75 1.75 0 0 1 .765-.765c.23-.117.464-.156.677-.173.204-.017.45-.017.718-.017z"/><path fill="currentColor" d="M9.4 3.286a.6.6 0 1 0 1.2 0H9.4M8 5h.6V3H7.4v2zm2-2h-.6v.286h1.2V3zM8 5.264h.6V5H7.4v.264zm2 0h.6V5H9.4v.264zm-.106.447.537.268a1.6 1.6 0 0 0 .169-.715H9.4a.4.4 0 0 1-.042.179zM9 2v.6c.22 0 .4.18.4.4h1.2A1.6 1.6 0 0 0 9 1.4zm.894 3.711-.536-.268c-.189.377-.758.243-.758-.18H7.4c0 1.69 2.276 2.227 3.031.716zM9 2v-.6A1.6 1.6 0 0 0 7.4 3h1.2c0-.22.18-.4.4-.4z"/><path stroke="currentColor" stroke-linecap="round" stroke-width="1.5" d="M9 9h6"/><circle cx="12" cy="14" r="2.75" stroke="currentColor" stroke-linecap="round" stroke-width="1.5"/><path stroke="currentColor" stroke-linecap="round" stroke-width="1.5" d="m10.586 12.586 1.121 1.121a1 1 0 0 0 .707.293H14"/></svg>