<svg width="24" height="24" viewBox="0 0 24 24" fill="none" xmlns="http://www.w3.org/2000/svg">
<g transform="translate(4.25, 4.25)">
<path d="M0.75 3.95V11.55C0.75 12.6701 0.75 13.2302 0.968 13.658C1.16 14.0343 1.466 14.3403 1.842 14.532C2.27 14.75 2.83 14.75 3.95 14.75H11.55C12.67 14.75 13.23 14.75 13.658 14.532C14.034 14.3403 14.34 14.0343 14.532 13.658C14.75 13.2302 14.75 12.6701 14.75 11.55V3.95C14.75 2.83 14.75 2.27 14.532 1.842C14.34 1.466 14.034 1.16 13.658 0.968C13.23 0.75 12.67 0.75 11.55 0.75H3.95C2.83 0.75 2.27 0.75 1.842 0.968C1.466 1.16 1.16 1.466 0.968 1.842C0.75 2.27 0.75 2.83 0.75 3.95Z" stroke="#314158" stroke-width="1.5" stroke-linecap="round" stroke-linejoin="round"/>
</g>
<g transform="translate(8.25, 8.25)">
<path d="M0.75 3.754L3.139 6.75L6.75 0.75" stroke="#314158" stroke-width="1.5" stroke-linecap="round" stroke-linejoin="round"/>
</g>
</svg>
