<svg fill="none" viewBox="0 0 24 24"><path stroke="currentColor" stroke-linecap="round" stroke-linejoin="round" stroke-width="1.5" d="M5 8.2v7.6c0 1.12 0 1.68.218 2.108.192.376.498.682.874.874C6.52 19 7.08 19 8.2 19h7.6c1.12 0 1.68 0 2.108-.218.376-.192.682-.498.874-.874C19 17.48 19 16.92 19 15.8V8.2c0-1.12 0-1.68-.218-2.108a2 2 0 0 0-.874-.874C17.48 5 16.92 5 15.8 5H8.2c-1.12 0-1.68 0-2.108.218a2 2 0 0 0-.874.874C5 6.52 5 7.08 5 8.2"/><path stroke="currentColor" stroke-linecap="round" stroke-linejoin="round" stroke-width="1.5" d="M9 12.004 11.389 15 15 9"/></svg>