<svg fill="none" viewBox="0 0 24 24"><path stroke="currentColor" stroke-linecap="round" stroke-linejoin="round" stroke-width="1.5" d="M15.02 4.25a15.3 15.3 0 0 1 0 7.7m2.154 0h-1.687a.72.72 0 0 0-.656.416l-2.526 5.542a.59.59 0 0 1-.539.342c-.572 0-.944-.17-1.235-.558-.072-.096-.108-.144-.222-.47a3.3 3.3 0 0 1-.119-.901c.026-.345.113-.561.287-.995l.547-1.363a.6.6 0 0 0 .047-.162c.006-.037.01-.175.005-.213-.01-.08 0-.053-.004-.064a.72.72 0 0 0-.68-.474l-3.628.3c-1.32 0-2.33-1.147-2.129-2.42l.773-4.9c.162-1.024 1.066-1.78 2.129-1.78h9.637c2.768 0 2.768 7.7 0 7.7"/></svg>