<svg fill="none" viewBox="0 0 24 24"><path fill="currentColor" d="M11.864 4.546c.93-.19 1.89.4 2.16 1.29.45 1.44-.22 2.35-.72 3.65l.05.18c.09.06.54.04.68.03 1.19-.04 2.99-.5 4.07-.08 1.18.47 1.72 1.51 1.63 2.75-.12 1.69-.66 3.53-.84 5.22a2.66 2.66 0 0 1-2.41 1.91c-2.49.17-5.17-.14-7.68 0l-.21-.11c-.08-.64-.21-1.28-.27-1.92-.2-2.12-.25-5.48.57-7.43.71-1.7 1.58-3.34 2.32-5.03.1-.2.43-.41.64-.46zM7.604 10.84c-.27 1.27-.31 2.55-.32 3.84-.01.91-.02 1.85.07 2.77.06.68.22 1.35.26 2.03h-1.19c-.17 0-.71-.31-.87-.42-1.82-1.41-1.79-6.35 0-7.8.13-.1.61-.42.74-.42h1.32z"/></svg>