<svg fill="none" viewBox="0 0 24 24"><path stroke="currentColor" stroke-linecap="round" stroke-linejoin="round" stroke-width="1.5" d="M13.75 17.25V6.75A1.75 1.75 0 0 0 12 5H5a1.75 1.75 0 0 0-1.75 1.75v9.625a.875.875 0 0 0 .875.875h1.75M14.624 17.251h-5.25M18.125 17.251h1.75a.875.875 0 0 0 .875-.875v-3.194a.88.88 0 0 0-.193-.546L17.512 8.83a.87.87 0 0 0-.682-.329h-3.08"/><path stroke="currentColor" stroke-linecap="round" stroke-linejoin="round" stroke-width="1.5" d="M16.376 18.999a1.75 1.75 0 1 0 0-3.5 1.75 1.75 0 0 0 0 3.5M7.625 18.999a1.75 1.75 0 1 0 0-3.5 1.75 1.75 0 0 0 0 3.5"/></svg>