<svg width="24" height="24" viewBox="0 0 24 24" fill="none" xmlns="http://www.w3.org/2000/svg">
<path d="M 13.7499 17.2495 V 6.7495 C 13.7499 6.2854 13.5655 5.8403 13.2373 5.5121 C 12.9091 5.1839 12.4640 4.9995 11.9999 4.9995 H 4.9999 C 4.5358 4.9995 4.0907 5.1839 3.7625 5.5121 C 3.4343 5.8403 3.2499 6.2854 3.2499 6.7495 V 16.3745 C 3.2499 16.6066 3.3421 16.8291 3.5062 16.9932 C 3.6703 17.1573 3.8928 17.2495 4.1249 17.2495 H 5.8749" stroke="#314158" stroke-width="1.5" stroke-linecap="round" stroke-linejoin="round"/>
<path d="M 14.6240 17.2512 H 9.3740" stroke="#314158" stroke-width="1.5" stroke-linecap="round" stroke-linejoin="round"/>
<path d="M 18.1248 17.2511 H 19.8748 C 20.1069 17.2511 20.3294 17.1589 20.4935 16.9948 C 20.6576 16.8307 20.7498 16.6082 20.7498 16.3761 V 13.1823 C 20.7495 12.9838 20.6816 12.7912 20.5573 12.6363 L 17.5123 8.8301 C 17.4305 8.7276 17.3267 8.6448 17.2085 8.5879 C 17.0904 8.5309 16.9610 8.5013 16.8298 8.5011 H 13.7498" stroke="#314158" stroke-width="1.5" stroke-linecap="round" stroke-linejoin="round"/>
<path d="M 16.3757 18.9988 C 17.3422 18.9988 18.1257 18.2153 18.1257 17.2488 C 18.1257 16.2823 17.3422 15.4988 16.3757 15.4988 C 15.4092 15.4988 14.6257 16.2823 14.6257 17.2488 C 14.6257 18.2153 15.4092 18.9988 16.3757 18.9988 Z" stroke="#314158" stroke-width="1.5" stroke-linecap="round" stroke-linejoin="round"/>
<path d="M 7.6253 18.9988 C 8.5918 18.9988 9.3753 18.2153 9.3753 17.2488 C 9.3753 16.2823 8.5918 15.4988 7.6253 15.4988 C 6.6588 15.4988 5.8753 16.2823 5.8753 17.2488 C 5.8753 18.2153 6.6588 18.9988 7.6253 18.9988 Z" stroke="#314158" stroke-width="1.5" stroke-linecap="round" stroke-linejoin="round"/>
</svg>
