<svg width="24" height="24" viewBox="0 0 24 24" fill="none" xmlns="http://www.w3.org/2000/svg">
<path d="M5.75 12.75C5.75 13.6693 5.93106 14.5795 6.28284 15.4288C6.63463 16.2781 7.15024 17.0497 7.80025 17.6997C8.45026 18.3498 9.22194 18.8654 10.0712 19.2172C10.9205 19.5689 11.8308 19.75 12.75 19.75C13.6693 19.75 14.5795 19.5689 15.4288 19.2172C16.2781 18.8654 17.0497 18.3498 17.6997 17.6997C18.3498 17.0497 18.8654 16.2781 19.2172 15.4288C19.5689 14.5795 19.75 13.6693 19.75 12.75C19.75 10.8935 19.0125 9.11301 17.6997 7.80025C16.387 6.4875 14.6065 5.75 12.75 5.75C10.8935 5.75 9.11301 6.4875 7.80025 7.80025C6.4875 9.11301 5.75 10.8935 5.75 12.75Z" stroke="#314158" stroke-width="1.5" stroke-linecap="round" stroke-linejoin="round"/>
<path d="M11.5 9.75V12.9576L14.3246 15.0322" stroke="#314158" stroke-width="1.5" stroke-linecap="round" stroke-linejoin="round"/>
</svg>
