<svg fill="none" viewBox="0 0 24 24"><path stroke="currentColor" stroke-linecap="round" stroke-width="1.5" d="M13.409 15a3 3 0 1 1-.282-5.166"/><circle cx="16.25" cy="8.25" r="3.5" stroke="currentColor" stroke-linecap="round" stroke-width="1.5"/><path stroke="currentColor" stroke-linecap="round" stroke-width="1.5" d="M21.23 13.5c-2 1-5 .5-6 0-1.773 0-2.367 1.964-2.479 4.5a.967.967 0 0 0 .979 1h9.001c.553 0 1.004-.449.961-.999-.195-2.536-1.132-4.501-2.462-4.501Z"/><path stroke="currentColor" stroke-linecap="round" stroke-width="1.5" d="M17.73 14.055c-1.074-.074-2.018-.314-2.5-.555-1.773 0-2.367 1.964-2.479 4.5a.97.97 0 0 0 .979 1h3"/></svg>