<svg width="24" height="24" viewBox="0 0 24 24" fill="none" xmlns="http://www.w3.org/2000/svg">
  <path d="M14.35 17.95C14.35 16.677 13.8443 15.4561 12.9441 14.5559C12.0439 13.6557 10.823 13.15 9.55 13.15M9.55 13.15C8.27696 13.15 7.05606 13.6557 6.15589 14.5559C5.25571 15.4561 4.75 16.677 4.75 17.95M9.55 13.15C11.3173 13.15 12.75 11.7173 12.75 9.95C12.75 8.18269 11.3173 6.75 9.55 6.75C7.78269 6.75 6.35 8.18269 6.35 9.95C6.35 11.7173 7.78269 13.15 9.55 13.15ZM20.75 17.95C20.75 16.677 20.2443 15.4561 19.3441 14.5559C18.4439 13.6557 17.223 13.15 15.95 13.15C16.7987 13.15 17.6126 12.8129 18.2127 12.2127C18.8129 11.6126 19.15 10.7987 19.15 9.95C19.15 9.10131 18.8129 8.28737 18.2127 7.68726C17.6126 7.08714 16.7987 6.75 15.95 6.75" stroke="#314158" stroke-width="1.5" stroke-linecap="round" stroke-linejoin="round"/>
</svg>
