<svg width="24" height="24" viewBox="0 0 24 24" fill="none" xmlns="http://www.w3.org/2000/svg">
  <path d="M13.409 15C12.934 15.316 12.363 15.5 11.75 15.5C10.093 15.5 8.75 14.157 8.75 12.5C8.75 10.843 10.093 9.5 11.75 9.5C12.246 9.5 12.714 9.62 13.127 9.834" stroke="#314158" stroke-width="1.5" stroke-linecap="round"/>
  <circle cx="16.25" cy="8.25" r="3.5" stroke="#314158" stroke-width="1.5" stroke-linecap="round"/>
  <path d="M21.23 13.5C19.23 14.5 16.23 14 15.23 13.5C13.457 13.5 12.863 15.464 12.751 18C12.727 18.552 13.177 19 13.73 19H22.731C23.284 19 23.735 18.551 23.692 18.001C23.497 15.465 22.56 13.5 21.23 13.5Z" stroke="#314158" stroke-width="1.5" stroke-linecap="round"/>
  <path d="M17.73 14.055C16.656 13.981 15.712 13.741 15.23 13.5C13.457 13.5 12.863 15.464 12.751 18C12.727 18.552 13.178 19 13.73 19C14.629 19 15.668 19 16.73 19" stroke="#314158" stroke-width="1.5" stroke-linecap="round"/>
</svg>
