<svg fill="none" viewBox="0 0 24 24"><path stroke="currentColor" stroke-linecap="round" stroke-linejoin="round" stroke-width="1.5" d="M7.5 6.75h3m5.654 0c-1.42.002-2.177.027-2.766.327a3 3 0 0 0-1.311 1.311c-.327.642-.327 1.482-.327 3.162v2.4c0 1.68 0 2.52.327 3.162a3 3 0 0 0 1.311 1.311c.589.3 1.346.325 2.766.327m0-12q.198 0 0 0"/><rect width="5" height="4.5" x="4" y="4" stroke="currentColor" stroke-linecap="round" stroke-linejoin="round" stroke-width="1.5" rx="1.5"/><rect width="5" height="4.5" x="4" y="16" stroke="currentColor" stroke-linecap="round" stroke-linejoin="round" stroke-width="1.5" rx="1.5"/><circle cx="17.25" cy="12.75" r="2" stroke="currentColor" stroke-linecap="round" stroke-linejoin="round" stroke-width="1.5"/></svg>